<svg width="24" height="24" viewBox="0 0 24 24" fill="none" xmlns="http://www.w3.org/2000/svg">
<path d="M24 11.94C23.9662 5.34 18.6075 0 12 0C5.3925 0 0 5.37375 0 12C0 18.6263 5.37375 24 12 24C15.1537 24 18.0225 22.7813 20.1638 20.7938V24H24V11.94ZM12 21.5212C6.7425 21.5212 2.47875 17.2575 2.47875 12C2.47875 6.7425 6.7425 2.47875 12 2.47875C16.8 2.47875 20.7562 6.03375 21.4125 10.65H19.2938C18.66 7.19625 15.6375 4.575 12 4.575C7.90125 4.575 4.575 7.8975 4.575 12C4.575 15.6525 7.215 18.6825 10.6913 19.3013V16.8525C8.97 16.3912 7.6125 15.0413 7.14375 13.32H9.27375C9.7725 14.3213 10.8 15.0112 11.9962 15.0112C13.6762 15.0112 15.0375 13.65 15.0375 11.97C15.0375 10.29 13.6762 8.92875 11.9962 8.92875C10.7812 8.92875 9.73875 9.64125 9.25125 10.6725H7.1475C7.72875 8.535 9.67875 6.96375 11.9962 6.96375C14.775 6.96375 17.0287 9.2175 17.0287 11.9962C17.0287 14.3212 15.4462 16.275 13.305 16.8488V19.2975C16.3575 18.7537 18.7688 16.35 19.3088 13.2938H21.42C20.7862 17.9363 16.815 21.5137 12 21.5137V21.5212Z" fill="#2A272A"/>
</svg>
