<svg width="86" height="18" viewBox="0 0 86 18" fill="none" xmlns="http://www.w3.org/2000/svg">
<path d="M6.33938 5.31C7.50375 5.31 8.56688 5.59688 9.52875 6.17063C10.4906 6.74438 11.2613 7.50938 11.8294 8.46563C12.4031 9.42188 12.69 10.485 12.69 11.6494V18H10.2544V16.6275C9.11812 17.5444 7.81313 18 6.33938 18C5.175 18 4.1175 17.7131 3.15563 17.1394C2.19938 16.5656 1.42875 15.8006 0.860625 14.8388C0.286875 13.8769 0 12.8138 0 11.6494C0 10.485 0.286875 9.4275 0.860625 8.46563C1.43437 7.50938 2.19938 6.73875 3.15563 6.17063C4.11188 5.59688 5.175 5.31 6.33938 5.31ZM6.05813 7.7175C4.9725 7.7175 4.05 8.1 3.29062 8.865C2.52562 9.63 2.14312 10.5525 2.14312 11.6325C2.14312 12.7125 2.52562 13.6519 3.29062 14.4169C4.05562 15.1819 4.97813 15.5644 6.05813 15.5644C7.13813 15.5644 8.0775 15.1819 8.83125 14.4169C9.59062 13.6519 9.9675 12.7238 9.9675 11.6325C9.9675 10.5413 9.59062 9.62438 8.83125 8.865C8.07187 8.1 7.14938 7.7175 6.05813 7.7175ZM10.1475 16.4756C10.1475 16.4756 10.1137 16.4925 10.1081 16.5038C10.1194 16.4925 10.1306 16.4869 10.1475 16.4756ZM10.2656 16.3688C10.2656 16.3688 10.2488 16.3856 10.2375 16.3969C10.2488 16.3856 10.2544 16.38 10.2656 16.3688ZM10.6369 16.02C10.6369 16.02 10.62 16.02 10.6088 16.0313C10.62 16.02 10.6256 16.02 10.6369 16.02ZM10.8788 15.7388C10.8788 15.7388 10.8787 15.7556 10.8675 15.7669C10.8787 15.7556 10.8788 15.75 10.8788 15.7388ZM10.9969 15.5925C10.9969 15.5925 10.98 15.6263 10.9688 15.6319C10.98 15.6206 10.9856 15.6094 10.9969 15.5925ZM11.1037 15.4575C11.1037 15.4575 11.0869 15.4913 11.0756 15.4969C11.0869 15.4856 11.0925 15.4744 11.1037 15.4575ZM11.5988 14.7263C11.5988 14.7263 11.5819 14.7431 11.5706 14.7544C11.5819 14.7431 11.5875 14.7375 11.5988 14.7263ZM11.6775 14.5688C11.6775 14.5688 11.6606 14.6025 11.6494 14.6081C11.6606 14.5969 11.6663 14.5856 11.6775 14.5688ZM11.7562 14.4113C11.7562 14.4113 11.7394 14.445 11.7281 14.4619C11.7394 14.445 11.745 14.4281 11.7562 14.4113ZM11.8238 14.265C11.8238 14.265 11.8237 14.2988 11.8125 14.3044C11.8237 14.2931 11.8238 14.2819 11.8238 14.265ZM11.9025 14.1075C11.9025 14.1075 11.8856 14.1413 11.8744 14.1469C11.8856 14.1356 11.8912 14.1244 11.9025 14.1075ZM12.0375 13.7588C12.0375 13.7588 12.0262 13.7813 12.0262 13.7981C12.0262 13.7813 12.0262 13.7644 12.0375 13.7588ZM12.0881 13.5844C12.0881 13.5844 12.0881 13.6181 12.0769 13.635C12.0881 13.6181 12.0881 13.6013 12.0881 13.5844ZM12.1387 13.41C12.1387 13.41 12.1387 13.4438 12.1275 13.4606C12.1387 13.4438 12.1387 13.4269 12.1387 13.41ZM12.1894 13.2525C12.1894 13.2525 12.1781 13.2863 12.1781 13.3031C12.1781 13.2863 12.1781 13.2694 12.1894 13.2525ZM12.2287 13.0781C12.2287 13.0781 12.2175 13.1119 12.2175 13.1288C12.2175 13.1119 12.2175 13.095 12.2287 13.0781ZM12.2681 12.9206C12.2681 12.9206 12.2569 12.9375 12.2569 12.9488C12.2569 12.9375 12.2569 12.9319 12.2681 12.9206ZM12.3075 12.7069C12.3075 12.7069 12.2963 12.7294 12.2963 12.7463C12.2963 12.7294 12.2962 12.7125 12.3075 12.7069ZM12.3356 12.5213C12.3356 12.5213 12.3356 12.555 12.3244 12.5719C12.3356 12.555 12.3356 12.5381 12.3356 12.5213ZM12.3637 12.3356C12.3637 12.3356 12.3525 12.3863 12.3525 12.4031C12.3525 12.3863 12.3525 12.3638 12.3637 12.3356ZM12.375 12.1613C12.375 12.1613 12.375 12.2119 12.3637 12.2288C12.375 12.2119 12.375 12.1894 12.375 12.1613Z" fill="#2A272A"/>
<path d="M14.2875 5.31H16.7119V6.71063C17.2631 6.2775 17.8762 5.93438 18.5512 5.68688C19.2262 5.43938 19.935 5.31563 20.6831 5.31563C21.4312 5.31563 22.185 5.445 22.8825 5.70938C23.5744 5.97375 24.1987 6.33938 24.7612 6.80625L23.0456 8.52188C22.3594 7.99875 21.5775 7.73438 20.6887 7.73438C19.5975 7.73438 18.6694 8.11688 17.9156 8.88188C17.1562 9.64688 16.7794 10.5694 16.7794 11.6494H16.7287V18H14.3044V5.31H14.2875Z" fill="#2A272A"/>
<path d="M26.3475 0H28.7719V2.42437H26.3475V0ZM26.3475 5.31H28.7719V18H26.3475V5.31Z" fill="#2A272A"/>
<path d="M36.7031 5.31C37.8675 5.31 38.9306 5.59688 39.8925 6.17063C40.8544 6.74438 41.625 7.50938 42.1931 8.46563C42.7669 9.42188 43.0537 10.485 43.0537 11.6494V18H40.6181V16.6275C39.4819 17.5444 38.1769 18 36.7031 18C35.5387 18 34.4812 17.7131 33.5194 17.1394C32.5631 16.5656 31.7925 15.8006 31.2244 14.8388C30.6506 13.8769 30.3637 12.8138 30.3637 11.6494C30.3637 10.485 30.6506 9.4275 31.2244 8.46563C31.7981 7.50938 32.5631 6.73875 33.5194 6.17063C34.4756 5.59688 35.5387 5.31 36.7031 5.31ZM36.4219 7.7175C35.3362 7.7175 34.4137 8.1 33.6544 8.865C32.8894 9.63 32.5069 10.5525 32.5069 11.6325C32.5069 12.7125 32.8894 13.6519 33.6544 14.4169C34.4194 15.1819 35.3419 15.5644 36.4219 15.5644C37.5019 15.5644 38.4412 15.1819 39.195 14.4169C39.9544 13.6519 40.3312 12.7238 40.3312 11.6325C40.3312 10.5413 39.9544 9.62438 39.195 8.865C38.4356 8.1 37.5131 7.7175 36.4219 7.7175ZM40.5112 16.4756C40.5112 16.4756 40.4775 16.4925 40.4719 16.5038C40.4831 16.4925 40.4944 16.4869 40.5112 16.4756ZM40.6294 16.3688C40.6294 16.3688 40.6125 16.3856 40.6012 16.3969C40.6125 16.3856 40.6181 16.38 40.6294 16.3688ZM41.0006 16.02C41.0006 16.02 40.9837 16.02 40.9725 16.0313C40.9837 16.02 40.9894 16.02 41.0006 16.02ZM41.2425 15.7388C41.2425 15.7388 41.2425 15.7556 41.2312 15.7669C41.2425 15.7556 41.2425 15.75 41.2425 15.7388ZM41.3606 15.5925C41.3606 15.5925 41.3437 15.6263 41.3325 15.6319C41.3437 15.6206 41.3494 15.6094 41.3606 15.5925ZM41.4675 15.4575C41.4675 15.4575 41.4506 15.4913 41.4394 15.4969C41.4506 15.4856 41.4562 15.4744 41.4675 15.4575ZM41.9625 14.7263C41.9625 14.7263 41.9456 14.7431 41.9344 14.7544C41.9456 14.7431 41.9512 14.7375 41.9625 14.7263ZM42.0412 14.5688C42.0412 14.5688 42.0244 14.6025 42.0131 14.6081C42.0244 14.5969 42.03 14.5856 42.0412 14.5688ZM42.12 14.4113C42.12 14.4113 42.1031 14.445 42.0919 14.4619C42.1031 14.445 42.1087 14.4281 42.12 14.4113ZM42.1875 14.265C42.1875 14.265 42.1875 14.2988 42.1762 14.3044C42.1875 14.2931 42.1875 14.2819 42.1875 14.265ZM42.2662 14.1075C42.2662 14.1075 42.2494 14.1413 42.2381 14.1469C42.2494 14.1356 42.255 14.1244 42.2662 14.1075ZM42.4012 13.7588C42.4012 13.7588 42.39 13.7813 42.39 13.7981C42.39 13.7813 42.39 13.7644 42.4012 13.7588ZM42.4519 13.5844C42.4519 13.5844 42.4519 13.6181 42.4406 13.635C42.4519 13.6181 42.4519 13.6013 42.4519 13.5844ZM42.5025 13.41C42.5025 13.41 42.5025 13.4438 42.4912 13.4606C42.5025 13.4438 42.5025 13.4269 42.5025 13.41ZM42.5531 13.2525C42.5531 13.2525 42.5419 13.2863 42.5419 13.3031C42.5419 13.2863 42.5419 13.2694 42.5531 13.2525ZM42.5925 13.0781C42.5925 13.0781 42.5812 13.1119 42.5812 13.1288C42.5812 13.1119 42.5812 13.095 42.5925 13.0781ZM42.6319 12.9206C42.6319 12.9206 42.6206 12.9375 42.6206 12.9488C42.6206 12.9375 42.6206 12.9319 42.6319 12.9206ZM42.6712 12.7069C42.6712 12.7069 42.66 12.7294 42.66 12.7463C42.66 12.7294 42.66 12.7125 42.6712 12.7069ZM42.6994 12.5213C42.6994 12.5213 42.6994 12.555 42.6881 12.5719C42.6994 12.555 42.6994 12.5381 42.6994 12.5213ZM42.7275 12.3356C42.7275 12.3356 42.7162 12.3863 42.7162 12.4031C42.7162 12.3863 42.7162 12.3638 42.7275 12.3356ZM42.7387 12.1613C42.7387 12.1613 42.7387 12.2119 42.7275 12.2288C42.7387 12.2119 42.7387 12.1894 42.7387 12.1613Z" fill="#2A272A"/>
<path d="M47.8069 17.1394C46.8506 16.5656 46.08 15.8006 45.5119 14.8387C44.9381 13.8769 44.6512 12.8137 44.6512 11.6494C44.6512 10.485 44.9381 9.4275 45.5119 8.46563C46.0856 7.50938 46.8506 6.73875 47.8069 6.17063C48.7631 5.59688 49.8262 5.31 50.9906 5.31C52.4644 5.31 53.7694 5.76 54.9056 6.66563V0H57.3412V11.6494C57.3412 12.8137 57.0544 13.8769 56.4806 14.8387C55.9069 15.8006 55.1419 16.5712 54.18 17.1394C53.2181 17.7131 52.155 18 50.9906 18C49.8262 18 48.7687 17.7131 47.8069 17.1394ZM53.7637 14.4225C54.5231 13.6631 54.9 12.7406 54.9 11.6438C54.9 10.5469 54.5231 9.63562 53.7637 8.87625C53.0044 8.11125 52.0819 7.72875 50.9906 7.72875C49.8994 7.72875 48.9825 8.11125 48.2231 8.87625C47.4637 9.64125 47.0756 10.5638 47.0756 11.6438C47.0756 12.7238 47.4581 13.6631 48.2231 14.4225C48.9881 15.1819 49.9106 15.5587 50.9906 15.5587C52.0706 15.5587 53.01 15.1819 53.7637 14.4225ZM55.035 6.7725C55.035 6.7725 55.0575 6.78938 55.0744 6.80063C55.0575 6.78938 55.0406 6.78375 55.035 6.7725ZM55.17 6.87937C55.17 6.87937 55.1869 6.91313 55.1981 6.91875C55.1869 6.9075 55.1812 6.89625 55.17 6.87937ZM55.4119 7.12125C55.4119 7.12125 55.4456 7.13813 55.4512 7.14938C55.44 7.13813 55.4287 7.1325 55.4119 7.12125ZM55.5469 7.25625C55.5469 7.25625 55.5637 7.25625 55.575 7.2675C55.5637 7.25625 55.5581 7.25625 55.5469 7.25625ZM55.8 7.52062C55.8 7.52062 55.8112 7.5375 55.8112 7.54875C55.8112 7.5375 55.8112 7.53187 55.8 7.52062ZM55.9069 7.65562C55.9069 7.65562 55.9237 7.6725 55.935 7.68375C55.9237 7.6725 55.9181 7.66687 55.9069 7.65562ZM56.0137 7.77375C56.0137 7.77375 56.0306 7.8075 56.0419 7.82437C56.0306 7.8075 56.025 7.79062 56.0137 7.77375ZM56.2106 8.055C56.2106 8.055 56.2275 8.08875 56.2387 8.09438C56.2275 8.08313 56.2219 8.07187 56.2106 8.055ZM56.3175 8.2125C56.3175 8.2125 56.3175 8.22375 56.3287 8.22375C56.3175 8.22375 56.3175 8.22375 56.3175 8.2125ZM56.5031 8.51625C56.5031 8.51625 56.52 8.55 56.5312 8.55563C56.52 8.54438 56.5144 8.53313 56.5031 8.51625ZM56.5819 8.6625C56.5819 8.6625 56.5987 8.69625 56.61 8.71312C56.5987 8.69625 56.5931 8.67937 56.5819 8.6625ZM56.6606 8.80875C56.6606 8.80875 56.6775 8.8425 56.6887 8.85938C56.6775 8.8425 56.6719 8.82562 56.6606 8.80875ZM56.7394 8.96625C56.7394 8.96625 56.7506 9 56.7506 9.01688C56.7506 9 56.7506 8.98312 56.7394 8.96625ZM56.8069 9.12375C56.8069 9.12375 56.8237 9.1575 56.835 9.16313C56.8237 9.15188 56.8181 9.14062 56.8069 9.12375ZM56.9531 9.48375C56.9531 9.48375 56.9531 9.5175 56.9644 9.52313C56.9531 9.51188 56.9531 9.50063 56.9531 9.48375ZM57.0037 9.64125C57.0037 9.64125 57.015 9.675 57.015 9.69187C57.015 9.675 57.015 9.65812 57.0037 9.64125ZM57.0544 9.79875C57.0544 9.79875 57.0656 9.83813 57.0656 9.86625C57.0656 9.83813 57.0656 9.81563 57.0544 9.79875ZM57.105 9.97312C57.105 9.97312 57.105 10.0069 57.1162 10.0237C57.105 10.0069 57.105 9.99 57.105 9.97312ZM57.1444 10.1306C57.1444 10.1306 57.1444 10.17 57.1556 10.1981C57.1444 10.17 57.1444 10.1475 57.1444 10.1306ZM57.1837 10.3275C57.1837 10.3275 57.1837 10.3444 57.195 10.3556C57.1837 10.3444 57.1837 10.3388 57.1837 10.3275ZM57.2231 10.53C57.2231 10.53 57.2231 10.5525 57.2344 10.5694C57.2231 10.5525 57.2231 10.5356 57.2231 10.53ZM57.2512 10.7044C57.2512 10.7044 57.2625 10.7381 57.2625 10.755C57.2625 10.7381 57.2625 10.7213 57.2512 10.7044ZM57.2794 10.8619C57.2794 10.8619 57.2794 10.9125 57.2906 10.9294C57.2794 10.9125 57.2794 10.89 57.2794 10.8619ZM57.2906 11.0475C57.2906 11.0475 57.3019 11.0812 57.3019 11.0981C57.3019 11.0812 57.3019 11.0644 57.2906 11.0475Z" fill="#2A272A"/>
<path d="M58.9388 5.31H61.3631V6.66563C62.4994 5.76 63.8044 5.31 65.2781 5.31C66.4313 5.31 67.4831 5.59125 68.4338 6.14813C69.3844 6.705 70.1438 7.45313 70.7175 8.3925C71.2913 9.32625 71.5894 10.3781 71.6175 11.5425H71.6287V18H69.1931V11.6381C69.165 10.53 68.7825 9.60188 68.0344 8.85375C67.2863 8.10563 66.3694 7.73438 65.2781 7.73438C64.1869 7.73438 63.27 8.11688 62.5106 8.88188C61.7456 9.64688 61.3631 10.5694 61.3631 11.6494V18H58.9388V5.31Z" fill="#2A272A"/>
<path d="M79.2675 5.32687H79.8525C79.9425 5.33812 80.0325 5.33812 80.1337 5.33812C80.2237 5.34937 80.3137 5.36062 80.3981 5.3775H80.4094C80.4994 5.38875 80.5894 5.4 80.6737 5.41687H80.685C80.775 5.43375 80.8594 5.45062 80.9381 5.4675H80.9662C81.045 5.49562 81.1237 5.51812 81.2081 5.535C81.2194 5.535 81.225 5.535 81.2362 5.54625C81.315 5.56312 81.3937 5.58562 81.4781 5.61375H81.5062C81.5794 5.64187 81.6525 5.66437 81.7312 5.6925C81.7425 5.70375 81.7481 5.70375 81.7594 5.70375C81.8381 5.73187 81.9169 5.76 81.9844 5.79937C81.9956 5.79937 82.0069 5.79937 82.0237 5.81062C82.0969 5.83875 82.1587 5.86687 82.2206 5.90625C82.2375 5.9175 82.2487 5.9175 82.26 5.9175C82.3331 5.95125 82.395 5.99062 82.4569 6.02437C82.4737 6.03562 82.4906 6.04125 82.5075 6.0525C82.5694 6.08062 82.6312 6.10875 82.6931 6.14812C82.71 6.15937 82.7269 6.165 82.7437 6.17625C82.7944 6.22125 82.8562 6.26062 82.9181 6.29437C82.935 6.30562 82.9519 6.31125 82.9687 6.3225C83.0306 6.35625 83.0869 6.39562 83.1431 6.44062C83.16 6.45187 83.1769 6.46312 83.1937 6.48L83.3512 6.59812C83.3512 6.59812 83.385 6.62062 83.4019 6.6375L83.5594 6.75562C83.5594 6.75562 83.5931 6.78937 83.61 6.795V6.80625C84.7294 7.74562 85.4494 8.96062 85.7644 10.44C85.8431 10.8281 85.8825 11.2331 85.8825 11.6494C85.8825 12.0656 85.8431 12.4706 85.7644 12.8587H75.8081C76.0725 13.6575 76.545 14.31 77.2144 14.8106C77.8837 15.3112 78.66 15.5644 79.5375 15.5644C80.415 15.5644 81.225 15.3 81.9056 14.7769L83.61 16.4925C83.0587 16.965 82.4344 17.3306 81.7369 17.5894C81.0394 17.8537 80.3081 17.9831 79.5319 17.9831C78.5137 17.9831 77.5631 17.7581 76.6912 17.3081C75.8194 16.8581 75.0825 16.2506 74.4919 15.48C73.9012 14.7094 73.5075 13.8319 73.3162 12.8587C73.2881 12.7069 73.2656 12.5606 73.2487 12.42C73.2375 12.4087 73.2375 12.4031 73.2375 12.3919C73.2375 12.3469 73.2375 12.3019 73.2262 12.2569V12.2287C73.2262 12.1837 73.2262 12.1444 73.215 12.1106V11.9531C73.215 11.9531 73.2037 11.8969 73.2037 11.8575V11.4469C73.2037 11.4019 73.2037 11.3625 73.215 11.3287V11.1825C73.2262 11.1487 73.2262 11.1094 73.2262 11.0644V11.025C73.2375 10.9912 73.2375 10.9519 73.2375 10.9069C73.2375 10.8956 73.2375 10.89 73.2487 10.8787C73.2487 10.8337 73.2487 10.7887 73.26 10.7437V10.7325C73.2712 10.6819 73.2769 10.6312 73.2881 10.5862C73.2994 10.5356 73.305 10.485 73.3162 10.44C73.3331 10.3444 73.35 10.2544 73.3669 10.1756V10.1644C73.44 9.9 73.5244 9.63562 73.62 9.37687C73.6481 9.29812 73.6762 9.21937 73.7156 9.135L73.7269 9.12375C73.8337 8.87625 73.9519 8.64 74.0869 8.42062C74.0869 8.40937 74.0869 8.40937 74.0981 8.40937C74.1431 8.33625 74.1881 8.26875 74.2331 8.19562C74.2331 8.18437 74.2331 8.17875 74.2444 8.1675C74.2894 8.09437 74.34 8.0325 74.3906 7.965V7.95375C74.4862 7.81312 74.5931 7.6725 74.7112 7.54312C74.7225 7.54312 74.7225 7.54312 74.7225 7.53187C74.7731 7.47 74.8294 7.40812 74.88 7.34625C74.8912 7.34625 74.8969 7.34625 74.9081 7.335C74.9587 7.27312 75.0206 7.21687 75.0825 7.16062C75.0825 7.14937 75.0825 7.14937 75.0937 7.14937C75.2175 7.02562 75.3412 6.9075 75.465 6.80062L75.4762 6.78937L75.6787 6.63187C75.6787 6.63187 75.6956 6.63187 75.7069 6.62062C75.7687 6.57 75.8306 6.51937 75.8925 6.47437C75.9037 6.46312 75.9094 6.46312 75.9206 6.46312C75.9937 6.4125 76.0612 6.36187 76.1344 6.31687C76.2075 6.27187 76.275 6.22687 76.3481 6.18187H76.3762C76.4381 6.13687 76.5112 6.0975 76.59 6.06375C76.6012 6.0525 76.6069 6.04687 76.6181 6.03562C76.6912 6.00187 76.7587 5.9625 76.8319 5.92875C76.8431 5.92875 76.8544 5.92875 76.8712 5.9175C76.9444 5.88375 77.0119 5.85 77.085 5.82187C77.0962 5.81062 77.1019 5.81062 77.1131 5.81062C77.1862 5.7825 77.2594 5.75437 77.3381 5.715H77.3494L77.5912 5.63625C77.5912 5.63625 77.6081 5.625 77.6194 5.625C77.6981 5.59687 77.7769 5.57437 77.8612 5.5575C77.8725 5.54625 77.8837 5.54625 77.9006 5.54625C77.9794 5.52937 78.0581 5.50687 78.1256 5.47875H78.165C78.2437 5.46187 78.3225 5.445 78.4069 5.42812H78.4181C78.4969 5.41125 78.5812 5.39437 78.6712 5.38875H78.7106C78.7894 5.3775 78.8681 5.37187 78.9525 5.36062C78.9637 5.34937 78.975 5.34937 78.9919 5.34937C79.0706 5.34937 79.155 5.34937 79.245 5.33812L79.2675 5.32687ZM79.56 7.75125C79.4531 7.75125 79.3462 7.75125 79.2394 7.7625H79.2281C79.1325 7.77375 79.0312 7.77937 78.9356 7.79062C78.9244 7.80187 78.9187 7.80187 78.9075 7.80187C78.8119 7.81875 78.7106 7.83562 78.615 7.8525H78.6037C78.5081 7.88062 78.4125 7.90875 78.3225 7.94812H78.3112C78.2156 7.97625 78.12 8.01 78.03 8.055H78.0187C77.9287 8.08875 77.8387 8.13375 77.7544 8.19H77.7431C77.6644 8.235 77.58 8.28562 77.49 8.33625C77.4 8.38687 77.3156 8.44875 77.2369 8.51062C77.0794 8.62875 76.9275 8.7525 76.7812 8.89875V8.91C76.7081 8.98312 76.6462 9.05062 76.5844 9.12375H76.5731C76.5112 9.2025 76.455 9.28125 76.3987 9.36562H76.3875C76.1569 9.69187 75.9769 10.0575 75.8419 10.4569H83.295C83.0306 9.65812 82.5694 9.01687 81.9112 8.5275C81.9 8.51625 81.8944 8.51062 81.8831 8.49937C81.81 8.44875 81.7369 8.39812 81.6581 8.35312C81.6469 8.34187 81.6412 8.33625 81.63 8.325C81.5512 8.28 81.4725 8.235 81.405 8.19C81.3881 8.19 81.3712 8.19 81.3656 8.17875L81.1237 8.06062C81.1237 8.06062 81.1012 8.06062 81.0844 8.04937C81.0056 8.01562 80.9212 7.98187 80.8312 7.95375C80.82 7.95375 80.8144 7.95375 80.8031 7.9425L80.5219 7.86375H80.5106C80.415 7.83562 80.3137 7.81875 80.2181 7.81312L80.2069 7.80187C80.1 7.79062 79.9987 7.785 79.9031 7.77375H79.8919C79.785 7.7625 79.6781 7.7625 79.5712 7.7625L79.56 7.75125Z" fill="#2A272A"/>
</svg>
