<svg width="579" height="893" viewBox="0 0 579 893" fill="none" xmlns="http://www.w3.org/2000/svg">
<path d="M167.5 -4.5C135 41.5 132.5 63.5 150 93.5C167.5 123.5 386 148 404 188C479.226 355.168 98 302.5 98 418.5C98 534.5 274.5 565 321 582.5C367.5 600 505.5 615.5 527.5 750C535.007 795.893 420.5 847.5 404 892" stroke="#595359" stroke-width="4" stroke-linejoin="round" stroke-dasharray="2 12"/>
<g filter="url(#filter0_d_203_73)">
<rect x="168.703" y="142" width="382" height="164" rx="12" transform="rotate(3.70816 168.703 142)" fill="#FCFCFC"/>
<rect x="184.91" y="201.172" width="343" height="12" transform="rotate(3.70816 184.91 201.172)" fill="#E4E4E7"/>
<rect x="183.94" y="216.141" width="343" height="12" transform="rotate(3.70816 183.94 216.141)" fill="#E4E4E7"/>
<rect x="182.97" y="231.109" width="236" height="12" transform="rotate(3.70816 182.97 231.109)" fill="#E4E4E7"/>
<rect x="181.288" y="257.055" width="160" height="33" rx="6" transform="rotate(3.70816 181.288 257.055)" fill="#595359"/>
<rect x="364.372" y="269.422" width="159" height="32" rx="5.5" transform="rotate(3.70816 364.372 269.422)" stroke="#A1A1AA"/>
<path d="M189.866 183.456L187.376 169.305L189.153 169.42L190.215 176.223L191.035 181.507L191.075 181.51L192.71 176.385L194.901 169.792L196.817 169.917L198.078 176.733L199.039 182.006L199.099 182.01L200.633 176.898L202.644 170.294L204.361 170.406L199.885 184.105L198.029 183.985L196.663 176.921L195.717 171.729L195.677 171.727L194.029 176.751L191.722 183.576L189.866 183.456ZM209.11 184.943C208.405 184.897 207.774 184.73 207.219 184.44C206.676 184.151 206.214 183.76 205.831 183.268C205.463 182.763 205.187 182.177 205.003 181.51C204.834 180.831 204.775 180.079 204.829 179.254C204.882 178.443 205.036 177.711 205.292 177.06C205.561 176.409 205.91 175.864 206.34 175.424C206.783 174.972 207.293 174.637 207.868 174.421C208.456 174.205 209.103 174.12 209.808 174.166C210.5 174.211 211.111 174.377 211.64 174.665C212.169 174.953 212.612 175.336 212.969 175.814C213.326 176.278 213.585 176.822 213.744 177.447C213.918 178.073 213.981 178.752 213.933 179.484L213.884 180.242L206.48 179.762L206.449 180.241C206.42 180.68 206.46 181.097 206.568 181.492C206.69 181.874 206.869 182.213 207.103 182.508C207.351 182.805 207.656 183.045 208.019 183.229C208.394 183.414 208.821 183.522 209.3 183.553C209.952 183.595 210.528 183.478 211.027 183.203C211.539 182.929 211.946 182.515 212.249 181.96L213.334 182.852C212.956 183.536 212.4 184.074 211.666 184.468C210.933 184.848 210.081 185.006 209.11 184.943ZM209.722 175.503C209.283 175.475 208.878 175.528 208.509 175.665C208.14 175.788 207.814 175.981 207.529 176.243C207.258 176.506 207.037 176.825 206.866 177.202C206.695 177.565 206.596 177.973 206.566 178.425L206.557 178.565L212.245 178.933L212.259 178.714C212.319 177.796 212.114 177.048 211.643 176.469C211.187 175.879 210.547 175.556 209.722 175.503ZM227.379 184.203L227.299 184.198C227.177 184.431 227.029 184.661 226.854 184.891C226.693 185.107 226.493 185.302 226.255 185.473C226.017 185.631 225.736 185.753 225.409 185.839C225.083 185.925 224.707 185.954 224.281 185.926C223.217 185.857 222.394 185.463 221.813 184.744C221.232 184.012 220.982 183.02 221.063 181.77L221.492 175.163L223.088 175.267L222.678 181.594C222.558 183.443 223.283 184.419 224.853 184.52C225.173 184.541 225.481 184.521 225.779 184.46C226.09 184.4 226.364 184.298 226.601 184.153C226.851 184.009 227.05 183.821 227.198 183.59C227.361 183.347 227.454 183.052 227.476 182.706L227.938 175.581L229.535 175.685L228.867 185.983L227.271 185.88L227.379 184.203ZM235.345 186.643C234.387 186.581 233.594 186.35 232.965 185.948C232.351 185.534 231.83 185.006 231.404 184.364L232.602 183.52C232.968 184.051 233.388 184.472 233.862 184.784C234.337 185.082 234.901 185.252 235.553 185.294C236.232 185.338 236.767 185.226 237.158 184.957C237.563 184.69 237.783 184.29 237.817 183.757C237.843 183.358 237.732 183.01 237.484 182.714C237.25 182.404 236.797 182.175 236.126 182.024L235.315 181.852C234.84 181.754 234.408 181.626 234.017 181.467C233.628 181.295 233.287 181.085 232.996 180.839C232.719 180.581 232.505 180.273 232.354 179.916C232.217 179.56 232.164 179.142 232.195 178.663C232.228 178.157 232.349 177.724 232.56 177.364C232.771 176.99 233.044 176.687 233.38 176.455C233.729 176.224 234.134 176.063 234.594 175.973C235.055 175.869 235.545 175.834 236.064 175.867C236.902 175.922 237.591 176.113 238.131 176.442C238.684 176.772 239.157 177.21 239.549 177.757L238.429 178.646C238.223 178.312 237.909 178.005 237.487 177.723C237.065 177.429 236.521 177.26 235.856 177.217C235.191 177.174 234.676 177.287 234.311 177.558C233.96 177.815 233.769 178.191 233.737 178.683C233.704 179.188 233.847 179.565 234.165 179.813C234.496 180.061 234.977 180.26 235.609 180.408L236.4 180.579C237.533 180.826 238.323 181.211 238.77 181.735C239.218 182.245 239.416 182.892 239.366 183.677C239.301 184.675 238.911 185.438 238.195 185.966C237.479 186.495 236.529 186.72 235.345 186.643ZM245.849 187.324C245.144 187.279 244.514 187.111 243.958 186.821C243.415 186.532 242.953 186.141 242.571 185.649C242.203 185.144 241.927 184.558 241.743 183.891C241.573 183.212 241.515 182.46 241.568 181.635C241.621 180.824 241.775 180.092 242.031 179.441C242.3 178.79 242.65 178.245 243.079 177.805C243.523 177.353 244.032 177.018 244.607 176.802C245.196 176.586 245.843 176.501 246.548 176.547C247.24 176.592 247.85 176.758 248.379 177.046C248.908 177.335 249.351 177.717 249.708 178.195C250.065 178.659 250.324 179.203 250.484 179.828C250.657 180.454 250.72 181.133 250.672 181.865L250.623 182.623L243.219 182.143L243.188 182.622C243.159 183.061 243.199 183.478 243.307 183.873C243.429 184.255 243.608 184.594 243.843 184.889C244.091 185.186 244.396 185.426 244.758 185.61C245.133 185.795 245.561 185.903 246.04 185.934C246.692 185.976 247.267 185.86 247.766 185.585C248.278 185.31 248.686 184.896 248.989 184.341L250.073 185.233C249.695 185.917 249.139 186.455 248.405 186.849C247.673 187.229 246.821 187.387 245.849 187.324ZM246.461 177.884C246.022 177.856 245.618 177.91 245.248 178.046C244.879 178.169 244.553 178.362 244.269 178.624C243.998 178.887 243.777 179.207 243.605 179.583C243.435 179.946 243.335 180.354 243.306 180.806L243.296 180.946L248.985 181.314L248.999 181.095C249.058 180.177 248.853 179.429 248.383 178.85C247.927 178.26 247.286 177.938 246.461 177.884ZM261.48 188.337C260.761 188.291 260.124 188.122 259.568 187.833C259.013 187.543 258.55 187.152 258.181 186.66C257.826 186.17 257.563 185.585 257.393 184.906C257.237 184.228 257.185 183.476 257.239 182.651C257.292 181.826 257.44 181.087 257.683 180.435C257.939 179.784 258.275 179.238 258.691 178.797C259.12 178.357 259.629 178.029 260.218 177.814C260.806 177.598 261.46 177.513 262.178 177.56C263.203 177.626 264.006 177.906 264.589 178.398C265.186 178.877 265.614 179.486 265.874 180.224L264.492 180.816C264.341 180.272 264.061 179.84 263.654 179.519C263.248 179.199 262.725 179.018 262.086 178.977C261.607 178.946 261.183 178.999 260.813 179.135C260.445 179.258 260.132 179.451 259.874 179.715C259.617 179.966 259.416 180.28 259.272 180.658C259.128 181.023 259.041 181.432 259.012 181.884L258.898 183.64C258.839 184.545 259.031 185.306 259.472 185.922C259.927 186.526 260.627 186.859 261.571 186.92C262.862 187.004 263.832 186.466 264.482 185.305L265.589 186.158C265.208 186.882 264.671 187.442 263.977 187.838C263.297 188.235 262.464 188.401 261.48 188.337ZM271.46 188.984C270.768 188.939 270.144 188.772 269.589 188.482C269.033 188.192 268.564 187.801 268.182 187.309C267.813 186.804 267.537 186.218 267.354 185.551C267.17 184.871 267.106 184.119 267.159 183.294C267.212 182.482 267.373 181.751 267.642 181.101C267.911 180.45 268.261 179.905 268.69 179.465C269.133 179.013 269.649 178.679 270.238 178.463C270.827 178.247 271.467 178.162 272.159 178.207C272.85 178.252 273.468 178.418 274.01 178.708C274.566 178.997 275.034 179.395 275.416 179.901C275.798 180.393 276.081 180.98 276.264 181.659C276.447 182.339 276.512 183.085 276.46 183.897C276.406 184.722 276.245 185.46 275.975 186.11C275.707 186.747 275.351 187.292 274.908 187.744C274.465 188.183 273.949 188.511 273.361 188.726C272.786 188.943 272.152 189.029 271.46 188.984ZM271.552 187.567C272.417 187.623 273.139 187.403 273.719 186.906C274.299 186.409 274.625 185.615 274.695 184.524L274.791 183.047C274.862 181.956 274.642 181.127 274.131 180.559C273.62 179.992 272.932 179.68 272.067 179.624C271.202 179.568 270.479 179.788 269.899 180.285C269.319 180.782 268.994 181.576 268.923 182.667L268.828 184.144C268.757 185.235 268.977 186.064 269.488 186.632C269.999 187.199 270.687 187.511 271.552 187.567ZM282.628 189.708C281.936 189.663 281.312 189.496 280.757 189.206C280.201 188.916 279.732 188.525 279.35 188.032C278.981 187.527 278.705 186.942 278.522 186.275C278.338 185.595 278.274 184.843 278.327 184.018C278.38 183.206 278.541 182.475 278.81 181.824C279.079 181.174 279.429 180.629 279.858 180.189C280.301 179.737 280.817 179.403 281.406 179.187C281.994 178.971 282.635 178.886 283.327 178.931C284.018 178.975 284.636 179.142 285.178 179.431C285.734 179.721 286.202 180.119 286.584 180.625C286.966 181.117 287.249 181.703 287.432 182.383C287.615 183.063 287.68 183.809 287.628 184.621C287.574 185.446 287.413 186.183 287.143 186.834C286.875 187.471 286.519 188.016 286.075 188.468C285.633 188.907 285.117 189.235 284.529 189.45C283.954 189.667 283.32 189.753 282.628 189.708ZM282.72 188.291C283.585 188.347 284.307 188.127 284.887 187.63C285.467 187.133 285.793 186.339 285.863 185.248L285.959 183.771C286.03 182.68 285.81 181.851 285.299 181.283C284.788 180.715 284.1 180.404 283.235 180.348C282.37 180.291 281.647 180.512 281.067 181.009C280.487 181.506 280.162 182.3 280.091 183.391L279.996 184.868C279.925 185.959 280.145 186.788 280.656 187.355C281.167 187.923 281.855 188.235 282.72 188.291ZM290.877 175.171L292.474 175.274L291.867 184.635L291.947 184.64L293.637 182.986L296.754 180.041L298.69 180.167L294.614 183.991L298.402 190.49L296.466 190.364L293.393 184.894L291.754 186.371L291.516 190.043L289.92 189.94L290.877 175.171ZM302.067 177.96C301.721 177.938 301.473 177.842 301.324 177.672C301.189 177.489 301.13 177.265 301.147 176.999L301.164 176.74C301.181 176.473 301.268 176.265 301.425 176.115C301.596 175.952 301.854 175.882 302.2 175.905C302.546 175.927 302.787 176.03 302.922 176.212C303.071 176.382 303.137 176.6 303.12 176.866L303.103 177.126C303.086 177.392 302.992 177.606 302.821 177.769C302.664 177.919 302.413 177.983 302.067 177.96ZM301.112 180.324L302.709 180.427L302.041 190.726L300.445 190.622L301.112 180.324ZM309.29 191.436C308.585 191.39 307.955 191.222 307.399 190.933C306.857 190.643 306.394 190.253 306.012 189.76C305.644 189.255 305.368 188.67 305.184 188.003C305.014 187.324 304.956 186.572 305.009 185.747C305.062 184.935 305.216 184.204 305.472 183.552C305.742 182.902 306.091 182.357 306.52 181.917C306.964 181.465 307.473 181.13 308.048 180.914C308.637 180.698 309.284 180.613 309.989 180.658C310.681 180.703 311.291 180.87 311.82 181.158C312.35 181.446 312.792 181.829 313.149 182.306C313.506 182.77 313.765 183.315 313.925 183.94C314.098 184.566 314.161 185.245 314.114 185.976L314.064 186.735L306.66 186.255L306.629 186.734C306.601 187.173 306.64 187.59 306.748 187.984C306.871 188.366 307.049 188.705 307.284 189.001C307.532 189.298 307.837 189.538 308.199 189.722C308.575 189.906 309.002 190.014 309.481 190.045C310.133 190.088 310.708 189.971 311.207 189.696C311.719 189.422 312.127 189.008 312.43 188.453L313.515 189.345C313.136 190.028 312.58 190.567 311.847 190.96C311.114 191.34 310.262 191.499 309.29 191.436ZM309.902 181.996C309.463 181.967 309.059 182.021 308.689 182.158C308.321 182.281 307.994 182.473 307.71 182.735C307.439 182.998 307.218 183.318 307.046 183.695C306.876 184.058 306.776 184.465 306.747 184.918L306.738 185.057L312.426 185.426L312.44 185.207C312.499 184.288 312.294 183.54 311.824 182.962C311.368 182.371 310.727 182.049 309.902 181.996ZM319.466 192.095C318.508 192.033 317.714 191.801 317.086 191.4C316.471 190.986 315.951 190.458 315.525 189.816L316.722 188.971C317.088 189.503 317.509 189.924 317.983 190.236C318.458 190.534 319.021 190.704 319.673 190.746C320.352 190.79 320.887 190.678 321.279 190.409C321.683 190.141 321.903 189.741 321.937 189.209C321.963 188.81 321.852 188.462 321.604 188.165C321.37 187.856 320.918 187.627 320.246 187.476L319.436 187.303C318.961 187.206 318.528 187.078 318.138 186.919C317.748 186.746 317.407 186.537 317.116 186.291C316.839 186.033 316.625 185.725 316.474 185.368C316.337 185.012 316.284 184.594 316.315 184.115C316.348 183.609 316.47 183.176 316.68 182.816C316.891 182.442 317.165 182.139 317.5 181.907C317.849 181.676 318.254 181.515 318.714 181.424C319.175 181.321 319.665 181.286 320.184 181.319C321.022 181.374 321.711 181.565 322.251 181.894C322.804 182.224 323.277 182.662 323.669 183.209L322.549 184.098C322.344 183.764 322.03 183.456 321.607 183.175C321.185 182.881 320.642 182.712 319.976 182.669C319.311 182.626 318.796 182.739 318.431 183.009C318.08 183.267 317.889 183.642 317.857 184.135C317.824 184.64 317.967 185.017 318.285 185.265C318.616 185.513 319.098 185.712 319.73 185.859L320.52 186.031C321.653 186.278 322.443 186.663 322.89 187.187C323.338 187.697 323.537 188.344 323.486 189.129C323.421 190.127 323.031 190.89 322.315 191.418C321.6 191.946 320.65 192.172 319.466 192.095ZM334.706 193.083C334.014 193.038 333.391 192.871 332.835 192.581C332.279 192.291 331.81 191.9 331.428 191.408C331.06 190.903 330.784 190.317 330.6 189.65C330.417 188.97 330.352 188.218 330.405 187.393C330.458 186.581 330.619 185.85 330.888 185.2C331.158 184.549 331.507 184.004 331.936 183.564C332.38 183.112 332.896 182.778 333.484 182.562C334.073 182.346 334.713 182.261 335.405 182.306C336.097 182.351 336.714 182.517 337.256 182.806C337.812 183.096 338.281 183.494 338.662 184C339.044 184.492 339.327 185.079 339.51 185.758C339.693 186.438 339.758 187.184 339.706 187.996C339.652 188.821 339.491 189.558 339.222 190.209C338.953 190.846 338.597 191.391 338.154 191.843C337.711 192.282 337.195 192.61 336.607 192.825C336.032 193.042 335.398 193.128 334.706 193.083ZM334.798 191.666C335.663 191.722 336.385 191.502 336.965 191.005C337.545 190.508 337.871 189.714 337.942 188.623L338.037 187.146C338.108 186.055 337.888 185.226 337.377 184.658C336.866 184.091 336.178 183.779 335.313 183.723C334.448 183.667 333.726 183.887 333.146 184.384C332.566 184.881 332.24 185.675 332.17 186.766L332.074 188.243C332.003 189.334 332.223 190.163 332.734 190.731C333.245 191.298 333.933 191.61 334.798 191.666ZM341.998 193.315L342.665 183.017L344.262 183.12L344.153 184.797L344.233 184.802C344.524 184.233 344.907 183.79 345.382 183.473C345.87 183.158 346.5 183.025 347.271 183.075C348.336 183.144 349.152 183.544 349.719 184.276C350.3 184.995 350.55 185.98 350.469 187.23L350.041 193.836L348.444 193.733L348.855 187.406C348.974 185.557 348.256 184.582 346.699 184.481C346.38 184.46 346.065 184.48 345.753 184.54C345.456 184.601 345.182 184.703 344.932 184.847C344.682 184.991 344.476 185.185 344.313 185.428C344.164 185.659 344.079 185.941 344.058 186.274L343.595 193.419L341.998 193.315ZM360.333 194.503C359.774 194.467 359.359 194.287 359.086 193.962C358.827 193.624 358.714 193.203 358.747 192.697L359.214 185.492L357.517 185.382L357.608 183.985L358.566 184.047C358.912 184.07 359.149 184.018 359.277 183.893C359.42 183.755 359.502 183.513 359.525 183.167L359.649 181.251L361.086 181.345L360.901 184.199L363.156 184.345L363.066 185.742L360.81 185.596L360.324 193.1L362.42 193.236L362.329 194.633L360.333 194.503ZM366.012 180.04L367.609 180.144L367.211 186.291L367.29 186.296C367.581 185.727 367.964 185.284 368.439 184.968C368.927 184.652 369.557 184.519 370.328 184.569C371.393 184.638 372.209 185.038 372.776 185.77C373.357 186.489 373.607 187.474 373.526 188.725L373.098 195.331L371.502 195.227L371.912 188.901C372.031 187.051 371.313 186.076 369.756 185.975C369.437 185.954 369.122 185.974 368.811 186.034C368.513 186.095 368.239 186.197 367.989 186.342C367.739 186.486 367.533 186.679 367.37 186.923C367.221 187.154 367.136 187.435 367.115 187.768L366.652 194.913L365.055 194.809L366.012 180.04ZM378.021 182.883C377.675 182.861 377.427 182.764 377.278 182.594C377.143 182.412 377.084 182.188 377.101 181.922L377.118 181.662C377.135 181.396 377.222 181.188 377.379 181.038C377.55 180.875 377.808 180.805 378.154 180.827C378.5 180.85 378.74 180.952 378.876 181.135C379.025 181.305 379.091 181.523 379.074 181.789L379.057 182.048C379.04 182.314 378.946 182.529 378.775 182.691C378.618 182.842 378.367 182.905 378.021 182.883ZM377.066 185.246L378.663 185.35L377.995 195.648L376.398 195.545L377.066 185.246ZM384.466 196.308C383.508 196.246 382.715 196.014 382.086 195.613C381.471 195.199 380.951 194.671 380.525 194.028L381.722 193.184C382.089 193.716 382.509 194.137 382.983 194.448C383.458 194.746 384.022 194.916 384.674 194.959C385.352 195.003 385.887 194.89 386.279 194.622C386.684 194.354 386.903 193.954 386.938 193.422C386.964 193.023 386.853 192.675 386.605 192.378C386.371 192.069 385.918 191.839 385.246 191.689L384.436 191.516C383.961 191.418 383.529 191.29 383.138 191.131C382.748 190.959 382.408 190.75 382.116 190.504C381.839 190.245 381.625 189.938 381.475 189.58C381.338 189.224 381.284 188.807 381.316 188.328C381.348 187.822 381.47 187.389 381.68 187.028C381.892 186.655 382.165 186.352 382.501 186.12C382.85 185.888 383.254 185.728 383.715 185.637C384.176 185.533 384.666 185.498 385.184 185.532C386.023 185.586 386.712 185.778 387.252 186.107C387.805 186.437 388.277 186.875 388.67 187.421L387.55 188.311C387.344 187.977 387.03 187.669 386.607 187.388C386.186 187.093 385.642 186.924 384.977 186.881C384.311 186.838 383.796 186.952 383.431 187.222C383.081 187.48 382.889 187.855 382.857 188.347C382.825 188.853 382.967 189.23 383.285 189.477C383.617 189.726 384.098 189.924 384.73 190.072L385.52 190.244C386.653 190.491 387.444 190.876 387.891 191.399C388.339 191.909 388.537 192.557 388.486 193.342C388.422 194.34 388.031 195.103 387.316 195.631C386.6 196.159 385.65 196.385 384.466 196.308ZM398.908 197.244C397.95 197.182 397.157 196.95 396.528 196.549C395.914 196.135 395.394 195.607 394.968 194.964L396.165 194.12C396.531 194.652 396.951 195.073 397.426 195.384C397.901 195.682 398.464 195.852 399.116 195.895C399.795 195.939 400.33 195.826 400.721 195.558C401.126 195.29 401.346 194.89 401.38 194.358C401.406 193.959 401.295 193.611 401.047 193.314C400.813 193.005 400.36 192.775 399.689 192.625L398.878 192.452C398.404 192.354 397.971 192.226 397.58 192.067C397.191 191.895 396.85 191.686 396.559 191.44C396.282 191.181 396.068 190.874 395.917 190.516C395.78 190.16 395.727 189.743 395.758 189.264C395.791 188.758 395.912 188.325 396.123 187.964C396.334 187.591 396.607 187.288 396.943 187.056C397.292 186.824 397.697 186.664 398.157 186.573C398.618 186.469 399.108 186.434 399.627 186.468C400.465 186.522 401.154 186.714 401.694 187.043C402.247 187.373 402.72 187.811 403.112 188.357L401.992 189.247C401.787 188.913 401.472 188.605 401.05 188.324C400.628 188.029 400.084 187.86 399.419 187.817C398.754 187.774 398.239 187.888 397.874 188.158C397.523 188.416 397.332 188.791 397.3 189.283C397.267 189.789 397.41 190.166 397.728 190.413C398.059 190.662 398.54 190.86 399.172 191.008L399.963 191.18C401.096 191.427 401.886 191.812 402.333 192.335C402.781 192.845 402.979 193.493 402.929 194.278C402.864 195.276 402.474 196.039 401.758 196.567C401.042 197.095 400.093 197.321 398.908 197.244ZM407.178 184.773C406.832 184.75 406.585 184.654 406.435 184.484C406.3 184.302 406.241 184.077 406.259 183.811L406.275 183.552C406.293 183.286 406.38 183.078 406.536 182.927C406.707 182.765 406.966 182.695 407.312 182.717C407.658 182.74 407.898 182.842 408.033 183.024C408.183 183.194 408.249 183.412 408.231 183.679L408.214 183.938C408.197 184.204 408.103 184.419 407.932 184.581C407.776 184.731 407.524 184.795 407.178 184.773ZM406.223 187.136L407.82 187.239L407.153 197.538L405.556 197.434L406.223 187.136ZM412.821 197.905C412.262 197.869 411.846 197.688 411.573 197.363C411.315 197.026 411.202 196.604 411.234 196.099L411.701 188.894L410.005 188.784L410.095 187.387L411.053 187.449C411.399 187.471 411.636 187.42 411.765 187.295C411.907 187.157 411.99 186.915 412.012 186.569L412.136 184.653L413.573 184.746L413.388 187.6L415.644 187.746L415.553 189.144L413.298 188.997L412.812 196.502L414.907 196.637L414.817 198.035L412.821 197.905ZM421.321 198.697C420.616 198.651 419.985 198.483 419.43 198.193C418.887 197.904 418.425 197.513 418.043 197.021C417.674 196.516 417.398 195.93 417.214 195.264C417.045 194.585 416.987 193.833 417.04 193.008C417.093 192.196 417.247 191.465 417.503 190.813C417.772 190.163 418.122 189.617 418.551 189.178C418.994 188.725 419.504 188.391 420.079 188.174C420.667 187.959 421.314 187.874 422.02 187.919C422.711 187.964 423.322 188.131 423.851 188.419C424.38 188.707 424.823 189.09 425.18 189.567C425.537 190.031 425.796 190.576 425.956 191.201C426.129 191.826 426.192 192.505 426.144 193.237L426.095 193.996L418.691 193.516L418.66 193.995C418.631 194.434 418.671 194.85 418.779 195.245C418.901 195.627 419.08 195.966 419.314 196.262C419.562 196.558 419.867 196.799 420.23 196.982C420.605 197.167 421.032 197.275 421.511 197.306C422.163 197.348 422.739 197.232 423.238 196.957C423.75 196.683 424.157 196.268 424.461 195.713L425.545 196.605C425.167 197.289 424.611 197.828 423.877 198.221C423.144 198.601 422.292 198.76 421.321 198.697ZM421.933 189.256C421.494 189.228 421.089 189.282 420.72 189.418C420.351 189.541 420.025 189.734 419.74 189.996C419.47 190.259 419.248 190.579 419.077 190.955C418.906 191.318 418.807 191.726 418.777 192.178L418.768 192.318L424.456 192.687L424.47 192.467C424.53 191.549 424.325 190.801 423.854 190.223C423.398 189.632 422.758 189.31 421.933 189.256Z" fill="#998E99"/>
<rect x="169.17" y="142.531" width="381" height="163" rx="11.5" transform="rotate(3.70816 169.17 142.531)" stroke="#C1A6C1"/>
</g>
<g filter="url(#filter1_d_203_73)">
<rect width="330" height="146" transform="translate(239.723 588.515) rotate(3.94273)" fill="#595359"/>
<path d="M264.684 619.024L264.464 619.009L263.826 628.267L261.272 628.091L262.232 614.164L265.824 614.411L268.358 623.888L268.578 623.903L269.216 614.645L271.77 614.821L270.81 628.748L267.218 628.501L264.684 619.024ZM277.988 629.483C277.19 629.428 276.48 629.259 275.858 628.976C275.237 628.679 274.717 628.282 274.296 627.786C273.89 627.29 273.589 626.701 273.396 626.019C273.202 625.338 273.134 624.578 273.192 623.74C273.25 622.902 273.421 622.159 273.707 621.51C273.992 620.862 274.37 620.32 274.841 619.884C275.325 619.45 275.895 619.135 276.55 618.94C277.206 618.731 277.933 618.654 278.731 618.709C279.529 618.764 280.239 618.94 280.86 619.237C281.482 619.52 281.996 619.91 282.403 620.405C282.823 620.902 283.13 621.491 283.324 622.173C283.517 622.855 283.585 623.614 283.527 624.452C283.47 625.29 283.298 626.034 283.013 626.682C282.728 627.331 282.343 627.872 281.858 628.307C281.387 628.742 280.824 629.064 280.168 629.273C279.513 629.468 278.787 629.538 277.988 629.483ZM278.14 627.289C278.805 627.334 279.338 627.164 279.739 626.777C280.14 626.391 280.366 625.818 280.418 625.06L280.531 623.424C280.583 622.666 280.437 622.068 280.093 621.63C279.749 621.192 279.245 620.95 278.58 620.904C277.915 620.858 277.382 621.028 276.981 621.415C276.58 621.802 276.353 622.374 276.301 623.132L276.188 624.768C276.136 625.527 276.282 626.125 276.626 626.563C276.97 627.001 277.475 627.243 278.14 627.289ZM303.917 629.145L303.778 629.136C303.469 629.743 303.061 630.229 302.554 630.595C302.062 630.949 301.404 631.097 300.579 631.04C300.007 631.001 299.489 630.858 299.025 630.613C298.574 630.368 298.191 630.014 297.875 629.551C297.573 629.089 297.345 628.512 297.193 627.82C297.053 627.129 297.016 626.318 297.08 625.386C297.144 624.455 297.292 623.657 297.525 622.991C297.772 622.327 298.076 621.786 298.439 621.37C298.815 620.955 299.243 620.657 299.724 620.477C300.217 620.297 300.75 620.227 301.322 620.266C301.734 620.294 302.096 620.373 302.408 620.501C302.72 620.63 302.989 620.795 303.216 620.998C303.456 621.202 303.653 621.442 303.808 621.72C303.976 621.986 304.117 622.276 304.229 622.591L304.368 622.601L304.806 616.256L307.759 616.46L306.741 631.225L303.788 631.021L303.917 629.145ZM302.014 628.834C302.533 628.87 302.987 628.774 303.377 628.547C303.78 628.321 304.001 627.935 304.038 627.39L304.247 624.357C304.285 623.811 304.12 623.399 303.751 623.12C303.396 622.841 302.959 622.684 302.441 622.649C301.776 622.603 301.249 622.774 300.862 623.161C300.475 623.535 300.257 624.082 300.207 624.8L300.097 626.396C300.048 627.115 300.188 627.692 300.519 628.129C300.851 628.553 301.349 628.788 302.014 628.834ZM314.159 631.976C312.43 631.857 311.153 631.288 310.328 630.269C309.502 629.25 309.147 627.915 309.26 626.266C309.318 625.428 309.483 624.684 309.755 624.035C310.041 623.373 310.413 622.824 310.871 622.388C311.343 621.939 311.893 621.616 312.521 621.419C313.164 621.209 313.871 621.131 314.642 621.184C315.414 621.237 316.097 621.411 316.691 621.706C317.287 621.988 317.782 622.369 318.176 622.851C318.571 623.333 318.858 623.907 319.04 624.574C319.235 625.229 319.305 625.956 319.25 626.754L319.19 627.632L312.147 627.147L312.134 627.326C312.088 627.991 312.257 628.544 312.641 628.985C313.026 629.412 313.618 629.654 314.416 629.709C315.028 629.751 315.561 629.674 316.015 629.478C316.471 629.269 316.871 628.982 317.217 628.619L318.694 630.465C318.261 630.929 317.673 631.316 316.93 631.626C316.187 631.936 315.263 632.052 314.159 631.976ZM314.517 623.3C313.878 623.256 313.352 623.421 312.939 623.793C312.54 624.153 312.317 624.666 312.272 625.331L312.261 625.49L316.411 625.777L316.422 625.617C316.469 624.938 316.319 624.394 315.973 623.982C315.641 623.572 315.155 623.344 314.517 623.3ZM326.263 632.811C325.451 632.755 324.728 632.584 324.093 632.3C323.472 632.003 322.951 631.607 322.531 631.11C322.124 630.614 321.824 630.025 321.63 629.344C321.436 628.662 321.369 627.902 321.426 627.064C321.484 626.226 321.656 625.483 321.941 624.835C322.226 624.186 322.604 623.644 323.075 623.209C323.56 622.774 324.129 622.459 324.784 622.264C325.454 622.056 326.187 621.98 326.985 622.035C328.116 622.113 329.004 622.408 329.651 622.92C330.311 623.42 330.795 624.061 331.102 624.844L328.742 625.925C328.583 625.513 328.36 625.163 328.072 624.876C327.798 624.59 327.382 624.428 326.823 624.389C326.145 624.342 325.605 624.506 325.206 624.879C324.82 625.24 324.604 625.76 324.557 626.438L324.441 628.114C324.395 628.793 324.537 629.344 324.869 629.767C325.214 630.179 325.74 630.409 326.445 630.458C327.017 630.497 327.472 630.395 327.809 630.151C328.16 629.907 328.463 629.581 328.719 629.171L330.865 630.602C330.441 631.334 329.853 631.909 329.103 632.325C328.367 632.728 327.42 632.89 326.263 632.811ZM338.087 633.626C336.358 633.506 335.08 632.937 334.255 631.918C333.43 630.899 333.074 629.565 333.188 627.915C333.246 627.077 333.41 626.333 333.682 625.684C333.969 625.022 334.341 624.473 334.798 624.037C335.27 623.588 335.82 623.265 336.449 623.068C337.091 622.858 337.799 622.78 338.57 622.833C339.342 622.886 340.024 623.06 340.619 623.355C341.214 623.637 341.709 624.019 342.104 624.5C342.498 624.982 342.786 625.556 342.967 626.224C343.163 626.879 343.233 627.605 343.178 628.403L343.117 629.281L336.074 628.796L336.062 628.975C336.016 629.64 336.185 630.193 336.569 630.634C336.954 631.062 337.545 631.303 338.343 631.358C338.955 631.4 339.488 631.323 339.943 631.127C340.398 630.918 340.799 630.632 341.145 630.268L342.621 632.114C342.188 632.578 341.6 632.966 340.857 633.275C340.114 633.585 339.191 633.702 338.087 633.626ZM338.444 624.95C337.806 624.906 337.28 625.07 336.867 625.442C336.468 625.802 336.245 626.315 336.199 626.98L336.188 627.14L340.338 627.426L340.349 627.266C340.396 626.588 340.247 626.043 339.901 625.631C339.568 625.221 339.083 624.994 338.444 624.95ZM345.689 623.564L348.642 623.768L348.512 625.643L348.652 625.653C348.947 625.059 349.348 624.578 349.854 624.212C350.36 623.846 351.026 623.692 351.851 623.749C352.423 623.788 352.934 623.93 353.385 624.175C353.849 624.421 354.232 624.775 354.535 625.237C354.85 625.699 355.078 626.276 355.217 626.968C355.37 627.66 355.414 628.471 355.35 629.403C355.286 630.334 355.131 631.132 354.885 631.796C354.652 632.462 354.347 633.002 353.971 633.417C353.608 633.833 353.18 634.131 352.686 634.311C352.206 634.492 351.68 634.562 351.108 634.523C350.283 634.466 349.645 634.228 349.193 633.81C348.741 633.378 348.411 632.84 348.201 632.198L348.061 632.188L347.657 638.054L344.704 637.851L345.689 623.564ZM349.989 632.14C350.654 632.186 351.18 632.022 351.567 631.648C351.954 631.26 352.173 630.707 352.222 629.989L352.333 628.393C352.382 627.674 352.241 627.103 351.909 626.679C351.579 626.242 351.081 626.001 350.416 625.955C349.897 625.919 349.436 626.015 349.033 626.241C348.643 626.468 348.429 626.854 348.391 627.399L348.182 630.432C348.145 630.977 348.304 631.389 348.659 631.668C349.027 631.947 349.47 632.105 349.989 632.14ZM362.55 635.071C361.486 634.998 360.713 634.664 360.233 634.069C359.753 633.475 359.542 632.745 359.602 631.881L359.949 626.853L357.155 626.66L357.313 624.366L359.129 624.491C359.568 624.521 359.887 624.456 360.085 624.296C360.283 624.136 360.398 623.823 360.43 623.358L360.596 620.943L363.31 621.13L363.06 624.762L367.07 625.038L366.912 627.333L362.902 627.056L362.508 632.763L366.519 633.039L366.361 635.334L362.55 635.071ZM375.154 624.272C374.489 624.226 374.033 624.061 373.785 623.777C373.552 623.48 373.448 623.139 373.475 622.753L373.515 622.174C373.542 621.775 373.691 621.451 373.962 621.203C374.247 620.955 374.722 620.854 375.387 620.9C376.052 620.946 376.501 621.111 376.736 621.394C376.984 621.678 377.094 622.02 377.066 622.419L377.026 622.998C377 623.384 376.844 623.707 376.558 623.968C376.287 624.217 375.819 624.318 375.154 624.272ZM369.763 633.263L373.036 633.488L373.429 627.782L370.157 627.556L370.315 625.262L376.54 625.691L375.988 633.692L379.021 633.901L378.863 636.195L369.605 635.557L369.763 633.263ZM383.923 636.544L380.942 625.994L384.054 626.209L385.087 630.71L385.828 634.21L385.988 634.221L387.202 630.856L388.843 626.539L391.836 626.745L387.435 636.786L383.923 636.544ZM397.906 637.748C396.177 637.629 394.899 637.06 394.074 636.041C393.249 635.022 392.893 633.687 393.007 632.038C393.065 631.2 393.229 630.456 393.501 629.807C393.788 629.145 394.16 628.596 394.617 628.16C395.089 627.711 395.639 627.388 396.268 627.191C396.91 626.981 397.618 626.903 398.389 626.956C399.161 627.009 399.844 627.183 400.438 627.478C401.033 627.76 401.528 628.141 401.923 628.623C402.317 629.105 402.605 629.679 402.786 630.346C402.982 631.001 403.052 631.728 402.997 632.526L402.936 633.404L395.893 632.919L395.881 633.098C395.835 633.763 396.004 634.316 396.388 634.757C396.773 635.184 397.364 635.426 398.162 635.481C398.774 635.523 399.307 635.446 399.762 635.25C400.217 635.041 400.618 634.754 400.964 634.391L402.44 636.237C402.008 636.701 401.42 637.088 400.676 637.398C399.933 637.708 399.01 637.824 397.906 637.748ZM398.263 629.072C397.625 629.028 397.099 629.193 396.686 629.565C396.287 629.925 396.064 630.438 396.018 631.103L396.007 631.262L400.157 631.549L400.168 631.389C400.215 630.711 400.066 630.166 399.72 629.754C399.387 629.344 398.902 629.116 398.263 629.072ZM423.555 637.391L423.416 637.382C423.107 637.988 422.699 638.475 422.193 638.841C421.7 639.195 421.042 639.343 420.217 639.286C419.645 639.247 419.127 639.104 418.663 638.858C418.212 638.613 417.829 638.259 417.513 637.797C417.211 637.335 416.983 636.758 416.831 636.066C416.691 635.374 416.654 634.563 416.718 633.632C416.782 632.701 416.93 631.903 417.163 631.237C417.41 630.572 417.714 630.032 418.077 629.616C418.453 629.201 418.881 628.903 419.362 628.722C419.855 628.542 420.388 628.472 420.96 628.512C421.372 628.54 421.734 628.619 422.046 628.747C422.358 628.875 422.627 629.041 422.854 629.244C423.094 629.447 423.291 629.688 423.446 629.966C423.615 630.232 423.755 630.522 423.867 630.837L424.007 630.847L424.444 624.502L427.397 624.705L426.379 639.47L423.426 639.267L423.555 637.391ZM421.652 637.08C422.171 637.115 422.625 637.02 423.015 636.793C423.419 636.566 423.639 636.181 423.676 635.635L423.886 632.603C423.923 632.057 423.758 631.645 423.389 631.365C423.034 631.087 422.597 630.93 422.079 630.894C421.414 630.848 420.887 631.019 420.5 631.407C420.113 631.781 419.895 632.327 419.845 633.046L419.735 634.642C419.686 635.36 419.827 635.938 420.157 636.375C420.489 636.799 420.987 637.034 421.652 637.08ZM433.797 640.222C432.068 640.103 430.791 639.534 429.966 638.515C429.14 637.495 428.785 636.161 428.898 634.512C428.956 633.674 429.121 632.93 429.393 632.28C429.679 631.619 430.051 631.07 430.509 630.633C430.981 630.185 431.531 629.862 432.159 629.664C432.802 629.455 433.509 629.377 434.28 629.43C435.052 629.483 435.735 629.657 436.329 629.952C436.925 630.234 437.42 630.615 437.814 631.097C438.209 631.578 438.497 632.153 438.678 632.82C438.873 633.475 438.943 634.202 438.888 635L438.828 635.878L431.785 635.392L431.772 635.572C431.726 636.237 431.895 636.79 432.279 637.231C432.664 637.658 433.256 637.899 434.054 637.954C434.666 637.997 435.199 637.92 435.653 637.724C436.109 637.515 436.51 637.228 436.855 636.864L438.332 638.71C437.899 639.175 437.311 639.562 436.568 639.872C435.825 640.181 434.901 640.298 433.797 640.222ZM434.155 631.546C433.516 631.502 432.99 631.666 432.577 632.039C432.178 632.399 431.956 632.911 431.91 633.577L431.899 633.736L436.049 634.022L436.06 633.863C436.107 633.184 435.957 632.639 435.611 632.228C435.279 631.817 434.793 631.59 434.155 631.546ZM445.362 641.019C444.218 640.94 443.232 640.699 442.405 640.294C441.591 639.891 440.991 639.375 440.607 638.747L442.369 637.325C442.738 637.791 443.179 638.169 443.694 638.458C444.223 638.735 444.833 638.898 445.525 638.945C446.11 638.986 446.575 638.931 446.92 638.781C447.265 638.618 447.45 638.35 447.476 637.977C447.496 637.685 447.397 637.477 447.178 637.355C446.96 637.22 446.654 637.105 446.26 637.011L444.621 636.638C444.161 636.539 443.735 636.41 443.345 636.249C442.956 636.075 442.624 635.859 442.348 635.599C442.071 635.339 441.859 635.031 441.71 634.673C441.561 634.315 441.503 633.89 441.537 633.398C441.611 632.321 442.082 631.504 442.949 630.949C443.816 630.394 444.994 630.168 446.484 630.271C447.495 630.341 448.343 630.539 449.029 630.867C449.729 631.183 450.274 631.608 450.665 632.143L449.073 633.717C448.79 633.363 448.417 633.057 447.953 632.798C447.49 632.539 446.919 632.386 446.241 632.339C445.097 632.26 444.501 632.567 444.453 633.258C444.432 633.564 444.531 633.785 444.749 633.92C444.967 634.042 445.274 634.15 445.669 634.244L447.287 634.616C447.748 634.715 448.173 634.851 448.562 635.025C448.952 635.186 449.285 635.396 449.561 635.655C449.85 635.916 450.069 636.225 450.219 636.583C450.368 636.94 450.425 637.365 450.391 637.857C450.317 638.935 449.839 639.757 448.958 640.325C448.09 640.893 446.892 641.125 445.362 641.019ZM458.901 630.044C458.236 629.998 457.779 629.833 457.532 629.549C457.298 629.252 457.195 628.911 457.221 628.525L457.261 627.946C457.289 627.547 457.438 627.224 457.709 626.975C457.993 626.727 458.468 626.626 459.133 626.672C459.798 626.718 460.248 626.883 460.482 627.166C460.73 627.45 460.84 627.792 460.813 628.191L460.773 628.77C460.746 629.156 460.59 629.479 460.305 629.74C460.034 629.989 459.566 630.09 458.901 630.044ZM453.51 639.035L456.782 639.26L457.175 633.554L453.903 633.328L454.061 631.034L460.287 631.463L459.735 639.464L462.768 639.673L462.61 641.967L453.352 641.329L453.51 639.035ZM475.001 643.864C474.926 644.955 474.411 645.728 473.458 646.183C472.504 646.639 471.043 646.799 469.074 646.663C468.09 646.595 467.283 646.479 466.653 646.316C466.021 646.165 465.52 645.97 465.149 645.731C464.791 645.492 464.543 645.221 464.403 644.918C464.277 644.615 464.226 644.291 464.25 643.945C464.29 643.36 464.494 642.926 464.861 642.644C465.227 642.375 465.728 642.182 466.364 642.066L466.372 641.946C465.943 641.783 465.603 641.572 465.353 641.314C465.118 641.044 465.016 640.683 465.047 640.231C465.082 639.725 465.274 639.364 465.623 639.148C465.985 638.932 466.45 638.777 467.018 638.683L467.027 638.563C466.435 638.228 465.984 637.783 465.675 637.227C465.379 636.672 465.258 636.015 465.31 635.257C465.351 634.659 465.494 634.14 465.738 633.703C465.983 633.252 466.308 632.887 466.715 632.607C467.135 632.329 467.624 632.129 468.18 632.007C468.736 631.885 469.354 631.847 470.032 631.894C470.684 631.939 471.284 632.054 471.833 632.238L471.871 631.68C471.899 631.281 472.061 630.958 472.359 630.711C472.657 630.464 473.052 630.358 473.544 630.392L475.359 630.517L475.211 632.672L472.737 632.501L472.724 632.681C473.263 633.012 473.667 633.447 473.937 633.987C474.222 634.515 474.339 635.144 474.288 635.876C474.247 636.475 474.105 636.993 473.861 637.43C473.617 637.868 473.284 638.232 472.863 638.524C472.443 638.803 471.948 639.002 471.378 639.124C470.822 639.246 470.205 639.283 469.526 639.236C469.22 639.215 468.928 639.182 468.651 639.136C468.374 639.077 468.112 639.005 467.864 638.921C467.712 638.991 467.579 639.082 467.464 639.195C467.363 639.308 467.306 639.458 467.293 639.644C467.282 639.803 467.313 639.933 467.386 640.031C467.46 640.13 467.561 640.21 467.691 640.273C467.834 640.323 467.999 640.361 468.184 640.387C468.369 640.413 468.562 640.433 468.761 640.447L471.116 640.609C471.847 640.659 472.467 640.776 472.976 640.958C473.485 641.14 473.896 641.375 474.21 641.664C474.524 641.953 474.742 642.282 474.864 642.652C474.986 643.021 475.031 643.425 475.001 643.864ZM472.192 643.891C472.211 643.625 472.119 643.405 471.917 643.23C471.714 643.069 471.314 642.968 470.715 642.927L467.184 642.684C466.902 642.891 466.75 643.162 466.727 643.494C466.705 643.813 466.82 644.082 467.072 644.3C467.337 644.532 467.795 644.67 468.447 644.715L470.183 644.835C470.861 644.882 471.36 644.822 471.678 644.657C471.997 644.492 472.169 644.237 472.192 643.891ZM469.655 637.361C470.254 637.402 470.696 637.286 470.983 637.011C471.282 636.738 471.447 636.375 471.479 635.923L471.512 635.444C471.543 634.992 471.429 634.61 471.17 634.298C470.924 633.987 470.502 633.811 469.903 633.769C469.318 633.729 468.882 633.846 468.596 634.12C468.309 634.395 468.151 634.758 468.12 635.21L468.087 635.689C468.055 636.141 468.163 636.523 468.409 636.834C468.655 637.145 469.07 637.321 469.655 637.361ZM476.701 642.939L477.41 632.643L480.363 632.846L480.234 634.722L480.354 634.73C480.494 634.446 480.659 634.183 480.849 633.942C481.039 633.702 481.261 633.496 481.513 633.327C481.78 633.145 482.076 633.011 482.403 632.927C482.743 632.83 483.12 632.796 483.532 632.824C484.025 632.858 484.471 632.976 484.871 633.177C485.273 633.365 485.608 633.636 485.878 633.988C486.148 634.341 486.346 634.762 486.472 635.252C486.612 635.743 486.661 636.301 486.618 636.926L486.158 643.59L483.205 643.387L483.637 637.122C483.729 635.792 483.196 635.087 482.039 635.007C481.813 634.991 481.584 635.009 481.353 635.06C481.137 635.098 480.938 635.178 480.756 635.299C480.574 635.407 480.424 635.55 480.305 635.729C480.199 635.909 480.137 636.125 480.12 636.378L479.654 643.142L476.701 642.939ZM266.238 652.61L266.099 652.601C265.789 653.207 265.382 653.694 264.875 654.06C264.383 654.414 263.725 654.562 262.9 654.505C262.328 654.466 261.81 654.323 261.346 654.077C260.895 653.832 260.512 653.478 260.196 653.016C259.894 652.554 259.666 651.977 259.513 651.285C259.374 650.593 259.336 649.782 259.401 648.851C259.465 647.92 259.613 647.122 259.846 646.456C260.093 645.791 260.397 645.251 260.76 644.835C261.136 644.42 261.564 644.122 262.044 643.941C262.538 643.761 263.071 643.691 263.643 643.731C264.055 643.759 264.417 643.838 264.729 643.966C265.041 644.094 265.31 644.26 265.537 644.463C265.777 644.666 265.974 644.907 266.129 645.185C266.297 645.451 266.438 645.741 266.55 646.056L266.689 646.066L267.127 639.721L270.08 639.924L269.062 654.689L266.109 654.486L266.238 652.61ZM264.335 652.299C264.854 652.334 265.308 652.239 265.698 652.012C266.101 651.785 266.322 651.4 266.359 650.854L266.568 647.822C266.606 647.276 266.441 646.864 266.072 646.584C265.717 646.306 265.28 646.149 264.761 646.113C264.096 646.067 263.57 646.238 263.182 646.626C262.796 647 262.578 647.547 262.528 648.265L262.418 649.861C262.369 650.579 262.509 651.157 262.84 651.594C263.172 652.018 263.67 652.253 264.335 652.299ZM276.48 655.441C274.751 655.322 273.474 654.753 272.648 653.734C271.823 652.714 271.467 651.38 271.581 649.731C271.639 648.893 271.804 648.149 272.076 647.499C272.362 646.838 272.734 646.289 273.192 645.852C273.664 645.404 274.214 645.081 274.842 644.883C275.485 644.674 276.192 644.596 276.963 644.649C277.735 644.702 278.418 644.876 279.012 645.171C279.608 645.453 280.102 645.834 280.497 646.316C280.891 646.797 281.179 647.372 281.361 648.039C281.556 648.694 281.626 649.421 281.571 650.219L281.511 651.097L274.467 650.611L274.455 650.791C274.409 651.456 274.578 652.009 274.962 652.45C275.347 652.877 275.938 653.118 276.737 653.173C277.348 653.216 277.882 653.139 278.336 652.943C278.792 652.734 279.192 652.447 279.538 652.083L281.015 653.929C280.582 654.394 279.994 654.781 279.251 655.091C278.508 655.4 277.584 655.517 276.48 655.441ZM276.837 646.765C276.199 646.721 275.673 646.885 275.26 647.258C274.861 647.618 274.638 648.13 274.592 648.796L274.581 648.955L278.732 649.241L278.743 649.082C278.789 648.403 278.64 647.858 278.294 647.447C277.961 647.036 277.476 646.809 276.837 646.765ZM288.979 656.062C287.915 655.989 287.143 655.655 286.662 655.06C286.182 654.466 285.972 653.736 286.031 652.872L286.378 647.844L283.585 647.651L283.743 645.357L285.558 645.482C285.997 645.512 286.316 645.447 286.514 645.287C286.712 645.127 286.827 644.814 286.859 644.349L287.026 641.934L289.739 642.121L289.489 645.753L293.5 646.029L293.342 648.324L289.331 648.047L288.938 653.754L292.948 654.03L292.79 656.325L288.979 656.062ZM300.408 657.09C298.678 656.971 297.401 656.402 296.576 655.383C295.751 654.364 295.395 653.029 295.509 651.38C295.566 650.542 295.731 649.798 296.003 649.149C296.289 648.487 296.661 647.938 297.119 647.501C297.591 647.053 298.141 646.73 298.77 646.533C299.412 646.323 300.119 646.245 300.891 646.298C301.662 646.351 302.345 646.525 302.94 646.82C303.535 647.102 304.03 647.483 304.425 647.965C304.819 648.446 305.107 649.021 305.288 649.688C305.484 650.343 305.554 651.07 305.499 651.868L305.438 652.746L298.395 652.26L298.383 652.44C298.337 653.105 298.506 653.658 298.89 654.099C299.275 654.526 299.866 654.768 300.664 654.823C301.276 654.865 301.809 654.788 302.264 654.592C302.719 654.383 303.12 654.096 303.466 653.733L304.942 655.578C304.509 656.043 303.921 656.43 303.178 656.74C302.435 657.05 301.512 657.166 300.408 657.09ZM300.765 648.414C300.127 648.37 299.601 648.535 299.187 648.907C298.788 649.267 298.566 649.78 298.52 650.445L298.509 650.604L302.659 650.89L302.67 650.731C302.717 650.052 302.567 649.507 302.222 649.096C301.889 648.686 301.404 648.458 300.765 648.414ZM312.511 657.924C311.7 657.869 310.976 657.698 310.341 657.414C309.72 657.117 309.199 656.721 308.779 656.224C308.372 655.728 308.072 655.139 307.879 654.458C307.685 653.776 307.617 653.016 307.675 652.178C307.733 651.34 307.904 650.597 308.189 649.948C308.475 649.3 308.853 648.758 309.324 648.323C309.808 647.888 310.378 647.573 311.033 647.378C311.702 647.17 312.436 647.094 313.234 647.149C314.364 647.227 315.253 647.522 315.899 648.034C316.56 648.534 317.043 649.175 317.35 649.958L314.99 651.039C314.832 650.627 314.609 650.277 314.321 649.99C314.047 649.704 313.63 649.542 313.071 649.503C312.393 649.456 311.854 649.62 311.454 649.993C311.068 650.354 310.852 650.874 310.805 651.552L310.69 653.228C310.643 653.906 310.785 654.458 311.117 654.881C311.463 655.293 311.988 655.523 312.693 655.571C313.265 655.611 313.72 655.509 314.058 655.264C314.409 655.021 314.712 654.695 314.967 654.285L317.114 655.716C316.689 656.448 316.102 657.023 315.351 657.439C314.615 657.842 313.668 658.004 312.511 657.924ZM324.871 658.536C323.806 658.462 323.034 658.128 322.554 657.534C322.074 656.94 321.863 656.21 321.923 655.345L322.269 650.317L319.476 650.125L319.634 647.83L321.45 647.955C321.889 647.986 322.207 647.921 322.406 647.761C322.604 647.601 322.719 647.288 322.751 646.822L322.917 644.408L325.631 644.595L325.381 648.226L329.391 648.503L329.233 650.797L325.222 650.521L324.829 656.227L328.84 656.504L328.681 658.798L324.871 658.536ZM336.299 659.564C334.57 659.445 333.293 658.876 332.467 657.856C331.642 656.837 331.286 655.503 331.4 653.854C331.458 653.016 331.623 652.272 331.895 651.622C332.181 650.96 332.553 650.411 333.011 649.975C333.483 649.527 334.033 649.204 334.661 649.006C335.304 648.797 336.011 648.718 336.782 648.772C337.554 648.825 338.237 648.999 338.831 649.294C339.427 649.575 339.922 649.957 340.316 650.439C340.71 650.92 340.998 651.495 341.18 652.162C341.375 652.817 341.445 653.544 341.39 654.342L341.33 655.22L334.286 654.734L334.274 654.914C334.228 655.579 334.397 656.132 334.781 656.573C335.166 657 335.757 657.241 336.556 657.296C337.167 657.338 337.701 657.262 338.155 657.066C338.611 656.857 339.011 656.57 339.357 656.206L340.834 658.052C340.401 658.517 339.813 658.904 339.07 659.214C338.327 659.523 337.403 659.64 336.299 659.564ZM336.656 650.888C336.018 650.844 335.492 651.008 335.079 651.381C334.68 651.741 334.457 652.253 334.412 652.918L334.401 653.078L338.551 653.364L338.562 653.204C338.608 652.526 338.459 651.981 338.113 651.57C337.78 651.159 337.295 650.932 336.656 650.888ZM349.985 658.382L349.845 658.373C349.536 658.979 349.128 659.466 348.622 659.832C348.13 660.186 347.471 660.334 346.647 660.277C346.075 660.238 345.557 660.095 345.092 659.849C344.642 659.604 344.258 659.25 343.943 658.788C343.64 658.326 343.413 657.749 343.26 657.057C343.121 656.365 343.083 655.554 343.147 654.623C343.211 653.692 343.36 652.894 343.593 652.228C343.839 651.563 344.144 651.023 344.507 650.607C344.883 650.192 345.311 649.894 345.791 649.713C346.285 649.533 346.817 649.463 347.389 649.503C347.802 649.531 348.164 649.61 348.476 649.738C348.788 649.866 349.057 650.032 349.283 650.235C349.523 650.438 349.721 650.679 349.875 650.957C350.044 651.223 350.184 651.513 350.296 651.828L350.436 651.838L350.873 645.493L353.826 645.696L352.809 660.461L349.856 660.258L349.985 658.382ZM348.082 658.071C348.601 658.106 349.055 658.011 349.445 657.784C349.848 657.557 350.068 657.172 350.106 656.626L350.315 653.594C350.353 653.048 350.187 652.636 349.819 652.357C349.464 652.078 349.027 651.921 348.508 651.885C347.843 651.839 347.317 652.01 346.929 652.398C346.542 652.772 346.324 653.319 346.275 654.037L346.165 655.633C346.115 656.351 346.256 656.929 346.587 657.366C346.918 657.79 347.417 658.025 348.082 658.071ZM368.256 646.691L371.209 646.894L370.772 653.239L370.892 653.248C371.032 652.963 371.197 652.701 371.387 652.46C371.577 652.219 371.799 652.014 372.051 651.844C372.318 651.662 372.614 651.529 372.941 651.444C373.281 651.347 373.658 651.313 374.07 651.342C374.563 651.376 375.009 651.493 375.409 651.695C375.811 651.883 376.146 652.153 376.416 652.506C376.686 652.858 376.884 653.28 377.01 653.77C377.15 654.26 377.199 654.818 377.156 655.443L376.696 662.108L373.743 661.904L374.175 655.639C374.267 654.309 373.734 653.604 372.577 653.524C372.351 653.509 372.122 653.526 371.892 653.577C371.675 653.616 371.476 653.695 371.294 653.817C371.112 653.924 370.962 654.068 370.843 654.247C370.737 654.426 370.675 654.643 370.658 654.895L370.192 661.659L367.239 661.456L368.256 646.691ZM384.154 662.862C382.425 662.743 381.148 662.174 380.323 661.155C379.497 660.136 379.142 658.801 379.255 657.152C379.313 656.314 379.478 655.57 379.75 654.921C380.036 654.259 380.408 653.71 380.866 653.273C381.338 652.825 381.888 652.502 382.516 652.305C383.159 652.095 383.866 652.017 384.637 652.07C385.409 652.123 386.092 652.297 386.686 652.592C387.282 652.874 387.777 653.255 388.171 653.737C388.566 654.218 388.854 654.793 389.035 655.46C389.23 656.115 389.3 656.842 389.245 657.64L389.185 658.518L382.142 658.032L382.129 658.212C382.083 658.877 382.252 659.43 382.636 659.871C383.021 660.298 383.613 660.54 384.411 660.595C385.023 660.637 385.556 660.56 386.01 660.364C386.466 660.155 386.867 659.868 387.212 659.505L388.689 661.35C388.256 661.815 387.668 662.202 386.925 662.512C386.182 662.822 385.258 662.938 384.154 662.862ZM384.512 654.186C383.873 654.142 383.347 654.307 382.934 654.679C382.535 655.039 382.313 655.552 382.267 656.217L382.256 656.376L386.406 656.662L386.417 656.503C386.464 655.824 386.314 655.279 385.968 654.868C385.636 654.458 385.15 654.23 384.512 654.186ZM391.504 660.823L393.878 660.986L394.272 655.28L391.897 655.116L392.056 652.822L397.383 653.189L397.182 656.102L397.322 656.112C397.441 655.746 397.592 655.395 397.775 655.06C397.973 654.713 398.207 654.415 398.478 654.167C398.764 653.906 399.098 653.708 399.481 653.574C399.865 653.44 400.309 653.391 400.815 653.425L401.792 653.493L401.605 656.206L399.411 656.055C398.679 656.005 398.112 656.186 397.709 656.599C397.307 656.999 397.085 657.512 397.042 658.137L396.831 661.19L400.223 661.424L400.065 663.718L391.346 663.117L391.504 660.823ZM408.082 664.511C406.353 664.392 405.075 663.823 404.25 662.804C403.425 661.785 403.069 660.45 403.183 658.801C403.241 657.963 403.406 657.219 403.678 656.57C403.964 655.908 404.336 655.359 404.793 654.923C405.265 654.474 405.816 654.151 406.444 653.954C407.087 653.744 407.794 653.666 408.565 653.719C409.337 653.772 410.02 653.946 410.614 654.241C411.209 654.523 411.704 654.904 412.099 655.386C412.493 655.868 412.781 656.442 412.962 657.109C413.158 657.764 413.228 658.491 413.173 659.289L413.113 660.167L406.069 659.682L406.057 659.861C406.011 660.526 406.18 661.079 406.564 661.52C406.949 661.947 407.54 662.189 408.338 662.244C408.95 662.286 409.484 662.209 409.938 662.013C410.394 661.804 410.794 661.517 411.14 661.154L412.617 663C412.184 663.464 411.596 663.851 410.853 664.161C410.109 664.471 409.186 664.588 408.082 664.511ZM408.439 655.835C407.801 655.791 407.275 655.956 406.862 656.328C406.463 656.688 406.24 657.201 406.194 657.866L406.183 658.026L410.334 658.312L410.345 658.152C410.391 657.474 410.242 656.929 409.896 656.517C409.563 656.107 409.078 655.879 408.439 655.835Z" fill="#FCFCFC"/>
<path d="M533.923 639.365C533.936 639.168 533.988 638.976 534.076 638.8C534.164 638.623 534.285 638.466 534.434 638.337C534.582 638.207 534.755 638.108 534.942 638.046C535.128 637.983 535.326 637.958 535.522 637.971C535.719 637.985 535.911 638.037 536.087 638.125C536.263 638.212 536.421 638.334 536.55 638.483C536.679 638.631 536.778 638.804 536.841 638.99C536.904 639.177 536.929 639.374 536.915 639.571L536.503 645.557C536.475 645.954 536.292 646.323 535.992 646.585C535.692 646.846 535.3 646.977 534.903 646.95C534.506 646.923 534.137 646.739 533.875 646.439C533.614 646.139 533.483 645.747 533.51 645.35L533.923 639.365ZM537.925 639.473L537.551 644.89C537.525 645.261 537.604 645.632 537.777 645.96C537.95 646.289 538.211 646.563 538.531 646.752L538.58 646.78C539.114 647.095 539.715 647.281 540.333 647.324L545.737 647.697C546.198 647.729 546.656 647.6 547.033 647.332C547.41 647.064 547.683 646.674 547.804 646.227L549.414 640.324C549.492 640.039 549.505 639.74 549.454 639.448C549.402 639.157 549.286 638.881 549.115 638.64C548.943 638.398 548.721 638.198 548.463 638.054C548.204 637.909 547.917 637.823 547.622 637.803L544.071 637.558L544.346 633.568C544.382 633.038 544.207 632.516 543.859 632.116C543.51 631.717 543.017 631.471 542.488 631.435C542.223 631.417 541.962 631.504 541.762 631.678C541.562 631.853 541.44 632.099 541.422 632.364L541.376 633.029C541.316 633.893 540.978 634.713 540.413 635.368L538.888 637.134C538.322 637.789 537.984 638.61 537.925 639.473Z" fill="#FCFCFC"/>
<path d="M547.959 668.399C547.932 668.795 547.748 669.165 547.448 669.426C547.148 669.688 546.757 669.819 546.36 669.792C545.963 669.764 545.593 669.581 545.332 669.281C545.07 668.981 544.939 668.589 544.966 668.192L545.379 662.206C545.406 661.81 545.59 661.44 545.89 661.178C546.19 660.917 546.582 660.786 546.979 660.813C547.375 660.84 547.745 661.024 548.007 661.324C548.268 661.624 548.399 662.016 548.372 662.413L547.959 668.399ZM543.957 668.29L544.331 662.873C544.356 662.502 544.279 662.132 544.106 661.803C543.933 661.474 543.671 661.2 543.351 661.011L543.303 660.983C542.768 660.667 542.166 660.481 541.546 660.439L536.144 660.066C535.683 660.034 535.225 660.163 534.848 660.431C534.471 660.699 534.198 661.089 534.076 661.536L532.467 667.439C532.389 667.725 532.375 668.024 532.427 668.315C532.479 668.607 532.595 668.883 532.766 669.124C532.938 669.365 533.161 669.565 533.419 669.71C533.677 669.854 533.964 669.94 534.26 669.96L537.811 670.205L537.536 674.196C537.5 674.725 537.675 675.247 538.023 675.647C538.372 676.047 538.865 676.292 539.394 676.328C539.658 676.347 539.919 676.259 540.119 676.085C540.319 675.911 540.442 675.664 540.46 675.399L540.506 674.734C540.566 673.871 540.904 673.05 541.469 672.395L542.994 670.629C543.56 669.974 543.898 669.154 543.957 668.29Z" fill="#FCFCFC"/>
<rect x="256.961" y="672.9" width="278" height="12" transform="rotate(3.94273 256.961 672.9)" fill="#FCFCFC"/>
<rect x="255.93" y="687.865" width="258" height="12" transform="rotate(3.94273 255.93 687.865)" fill="#FCFCFC"/>
<rect x="254.898" y="702.829" width="170" height="12" transform="rotate(3.94273 254.898 702.829)" fill="#FCFCFC"/>
</g>
<g clip-path="url(#clip0_203_73)" filter="url(#filter2_d_203_73)">
<rect width="330" height="146" transform="translate(9 395.806) rotate(-3.96289)" fill="#B677FA"/>
<path d="M34.8833 418.111L39.3726 417.8C41.2481 417.67 42.6796 418.172 43.667 419.307C44.6544 420.441 45.226 422.132 45.3817 424.38C45.5375 426.628 45.2045 428.382 44.383 429.642C43.5614 430.902 42.2129 431.597 40.3374 431.727L35.8481 432.038L34.8833 418.111ZM39.9747 429.386C40.8659 429.324 41.4979 428.993 41.8706 428.393C42.2433 427.792 42.3919 426.946 42.3164 425.856L42.1408 423.322C42.0662 422.244 41.8029 421.434 41.3509 420.891C40.8989 420.347 40.2274 420.106 39.3362 420.168L37.9994 420.261L38.638 429.479L39.9747 429.386ZM52.8163 431.103C51.0871 431.222 49.7437 430.834 48.7862 429.938C47.8286 429.042 47.2927 427.77 47.1785 426.12C47.1204 425.282 47.1814 424.523 47.3615 423.842C47.5539 423.147 47.8468 422.552 48.2402 422.057C48.646 421.548 49.1465 421.152 49.7418 420.871C50.3494 420.575 51.039 420.4 51.8105 420.346C52.582 420.293 53.2824 420.371 53.9118 420.582C54.5402 420.779 55.083 421.089 55.5399 421.511C55.9969 421.934 56.361 422.464 56.6323 423.1C56.916 423.722 57.0854 424.432 57.1407 425.23L57.2016 426.108L50.1584 426.596L50.1709 426.775C50.2169 427.44 50.4604 427.965 50.9014 428.348C51.3413 428.719 51.9604 428.876 52.7585 428.821C53.3703 428.779 53.8879 428.629 54.3112 428.373C54.7336 428.103 55.091 427.764 55.3835 427.356L57.0999 428.982C56.735 429.501 56.2058 429.966 55.5124 430.375C54.819 430.783 53.9203 431.026 52.8163 431.103ZM51.977 422.46C51.3385 422.504 50.8402 422.739 50.4821 423.165C50.1364 423.577 49.9866 424.115 50.0327 424.78L50.0437 424.94L54.1938 424.652L54.1827 424.492C54.1357 423.814 53.9126 423.295 53.5135 422.935C53.1276 422.574 52.6154 422.416 51.977 422.46ZM64.9195 430.264C64.1081 430.32 63.3682 430.251 62.6998 430.057C62.0439 429.849 61.4736 429.527 60.9891 429.093C60.5179 428.658 60.1396 428.116 59.8541 427.468C59.5686 426.819 59.3968 426.076 59.3387 425.238C59.2807 424.4 59.3483 423.64 59.5417 422.958C59.735 422.277 60.0351 421.688 60.4418 421.192C60.8618 420.695 61.3827 420.305 62.0046 420.021C62.6388 419.723 63.355 419.547 64.1531 419.491C65.2837 419.413 66.2044 419.583 66.915 420.002C67.638 420.406 68.2053 420.975 68.617 421.708L66.4281 423.103C66.2143 422.717 65.9452 422.401 65.6208 422.156C65.3097 421.911 64.8749 421.807 64.3162 421.846C63.6378 421.893 63.1263 422.129 62.7815 422.553C62.449 422.964 62.3063 423.509 62.3533 424.187L62.4694 425.863C62.5164 426.541 62.7333 427.068 63.1201 427.442C63.5193 427.802 64.0713 427.957 64.7763 427.908C65.3483 427.869 65.7847 427.705 66.0855 427.417C66.3996 427.128 66.6549 426.763 66.8516 426.321L69.1747 427.443C68.8548 428.227 68.3518 428.877 67.6658 429.392C66.9921 429.893 66.0767 430.184 64.9195 430.264ZM76.7433 429.445C75.0141 429.565 73.6707 429.177 72.7132 428.281C71.7557 427.385 71.2198 426.112 71.1055 424.463C71.0474 423.625 71.1084 422.865 71.2885 422.185C71.4809 421.49 71.7738 420.895 72.1672 420.4C72.573 419.89 73.0735 419.495 73.6688 419.213C74.2765 418.917 74.9661 418.742 75.7375 418.689C76.509 418.635 77.2094 418.714 77.8388 418.924C78.4673 419.121 79.01 419.431 79.467 419.854C79.9239 420.277 80.2881 420.806 80.5593 421.442C80.843 422.064 81.0125 422.774 81.0678 423.572L81.1286 424.45L74.0855 424.938L74.0979 425.118C74.144 425.783 74.3875 426.307 74.8284 426.691C75.2684 427.061 75.8874 427.219 76.6855 427.164C77.2974 427.121 77.8149 426.972 78.2382 426.715C78.6606 426.445 79.018 426.107 79.3105 425.699L81.027 427.324C80.662 427.844 80.1328 428.308 79.4394 428.717C78.746 429.126 77.8473 429.369 76.7433 429.445ZM75.904 420.802C75.2655 420.847 74.7672 421.082 74.4091 421.507C74.0634 421.919 73.9136 422.457 73.9597 423.122L73.9707 423.282L78.1208 422.994L78.1097 422.835C78.0627 422.156 77.8397 421.637 77.4405 421.277C77.0546 420.916 76.5425 420.758 75.904 420.802ZM82.8892 418.434L85.8421 418.229L85.9721 420.105L86.1117 420.095C86.3221 419.466 86.6528 418.935 87.104 418.503C87.5553 418.071 88.1932 417.826 89.0179 417.769C89.5899 417.729 90.116 417.8 90.5963 417.98C91.0899 418.16 91.5181 418.458 91.8811 418.874C92.2573 419.289 92.5621 419.829 92.7953 420.494C93.0418 421.159 93.1973 421.957 93.2618 422.888C93.3263 423.819 93.2823 424.631 93.1298 425.323C92.9906 426.014 92.7632 426.591 92.4478 427.054C92.1457 427.516 91.7625 427.87 91.2984 428.116C90.8476 428.361 90.3362 428.503 89.7643 428.543C88.9396 428.6 88.2745 428.452 87.7689 428.1C87.2624 427.734 86.8611 427.247 86.5651 426.64L86.4254 426.649L86.8318 432.515L83.8789 432.72L82.8892 418.434ZM88.3284 426.337C88.9935 426.291 89.4917 426.056 89.8232 425.632C90.1538 425.195 90.2942 424.617 90.2445 423.899L90.1339 422.303C90.0841 421.584 89.8659 421.038 89.4791 420.664C89.0914 420.276 88.565 420.106 87.8999 420.152C87.3812 420.188 86.9377 420.345 86.5694 420.625C86.2145 420.903 86.0559 421.315 86.0937 421.861L86.3038 424.893C86.3416 425.439 86.5554 425.825 86.9454 426.052C87.3486 426.278 87.8096 426.373 88.3284 426.337ZM101.173 427.512C100.108 427.586 99.2976 427.361 98.7401 426.839C98.1827 426.316 97.874 425.622 97.8141 424.758L97.4658 419.73L94.6725 419.923L94.5135 417.629L96.3292 417.503C96.7681 417.473 97.0747 417.364 97.249 417.179C97.4232 416.993 97.4942 416.667 97.462 416.202L97.2947 413.787L100.008 413.599L100.26 417.231L104.27 416.953L104.429 419.247L100.419 419.525L100.814 425.231L104.824 424.954L104.983 427.248L101.173 427.512ZM112.172 415.082C111.507 415.128 111.032 415.028 110.748 414.78C110.476 414.518 110.326 414.194 110.299 413.809L110.259 413.23C110.232 412.831 110.335 412.49 110.569 412.206C110.817 411.922 111.273 411.756 111.938 411.71C112.603 411.664 113.072 411.765 113.343 412.014C113.627 412.262 113.783 412.585 113.811 412.984L113.851 413.563C113.878 413.948 113.768 414.29 113.521 414.588C113.287 414.871 112.837 415.036 112.172 415.082ZM108.069 424.729L111.341 424.502L110.946 418.796L107.674 419.023L107.515 416.728L113.74 416.297L114.294 424.298L117.327 424.088L117.486 426.382L108.228 427.023L108.069 424.729ZM122.546 426.031L118.141 415.992L121.254 415.776L122.896 420.093L124.111 423.457L124.271 423.446L125.011 419.947L126.042 415.445L129.035 415.237L126.057 425.788L122.546 426.031ZM136.561 425.301C134.832 425.421 133.488 425.033 132.531 424.137C131.573 423.241 131.037 421.968 130.923 420.319C130.865 419.481 130.926 418.722 131.106 418.041C131.298 417.346 131.591 416.751 131.985 416.256C132.391 415.747 132.891 415.351 133.486 415.069C134.094 414.773 134.784 414.598 135.555 414.545C136.327 414.491 137.027 414.57 137.656 414.78C138.285 414.977 138.828 415.287 139.285 415.71C139.742 416.133 140.106 416.662 140.377 417.298C140.661 417.92 140.83 418.63 140.885 419.428L140.946 420.306L133.903 420.794L133.915 420.974C133.962 421.639 134.205 422.163 134.646 422.547C135.086 422.917 135.705 423.075 136.503 423.02C137.115 422.977 137.633 422.828 138.056 422.571C138.478 422.301 138.836 421.963 139.128 421.555L140.845 423.18C140.48 423.7 139.95 424.164 139.257 424.573C138.564 424.982 137.665 425.225 136.561 425.301ZM135.722 416.658C135.083 416.703 134.585 416.938 134.227 417.363C133.881 417.775 133.731 418.313 133.777 418.978L133.788 419.138L137.938 418.851L137.927 418.691C137.88 418.013 137.657 417.493 137.258 417.133C136.872 416.773 136.36 416.614 135.722 416.658ZM161.918 421.419L161.778 421.429C161.555 422.073 161.218 422.611 160.767 423.043C160.328 423.461 159.696 423.698 158.872 423.756C158.3 423.795 157.767 423.725 157.273 423.545C156.793 423.365 156.365 423.067 155.989 422.652C155.626 422.236 155.321 421.696 155.074 421.031C154.841 420.366 154.692 419.568 154.628 418.637C154.563 417.705 154.601 416.894 154.74 416.203C154.892 415.511 155.12 414.934 155.422 414.472C155.737 414.009 156.12 413.655 156.571 413.41C157.035 413.164 157.553 413.021 158.125 412.981C158.538 412.953 158.907 412.981 159.234 413.065C159.56 413.149 159.85 413.276 160.102 413.446C160.368 413.615 160.596 413.826 160.788 414.08C160.991 414.32 161.17 414.588 161.325 414.885L161.464 414.875L161.025 408.53L163.978 408.326L165 423.09L162.048 423.295L161.918 421.419ZM159.99 421.373C160.509 421.337 160.945 421.179 161.3 420.901C161.669 420.621 161.834 420.209 161.796 419.664L161.586 416.631C161.548 416.086 161.328 415.7 160.924 415.474C160.534 415.247 160.08 415.151 159.561 415.187C158.896 415.233 158.398 415.475 158.068 415.912C157.736 416.336 157.595 416.907 157.645 417.626L157.756 419.222C157.806 419.94 158.024 420.493 158.412 420.88C158.799 421.255 159.325 421.419 159.99 421.373ZM172.451 422.815C170.722 422.935 169.379 422.546 168.421 421.651C167.464 420.755 166.928 419.482 166.814 417.833C166.756 416.995 166.817 416.235 166.997 415.554C167.189 414.859 167.482 414.264 167.875 413.769C168.281 413.26 168.782 412.865 169.377 412.583C169.985 412.287 170.674 412.112 171.446 412.059C172.217 412.005 172.918 412.084 173.547 412.294C174.175 412.491 174.718 412.801 175.175 413.224C175.632 413.646 175.996 414.176 176.267 414.812C176.551 415.434 176.721 416.144 176.776 416.942L176.837 417.82L169.794 418.308L169.806 418.487C169.852 419.152 170.096 419.677 170.536 420.061C170.976 420.431 171.596 420.589 172.394 420.533C173.005 420.491 173.523 420.341 173.946 420.085C174.369 419.815 174.726 419.476 175.019 419.068L176.735 420.694C176.37 421.213 175.841 421.678 175.148 422.087C174.454 422.496 173.555 422.738 172.451 422.815ZM171.612 414.172C170.974 414.216 170.475 414.451 170.117 414.877C169.772 415.289 169.622 415.827 169.668 416.492L169.679 416.652L173.829 416.364L173.818 416.205C173.771 415.526 173.548 415.007 173.149 414.647C172.763 414.286 172.251 414.128 171.612 414.172ZM184.016 422.014C182.872 422.093 181.862 421.989 180.987 421.702C180.125 421.414 179.461 420.986 178.994 420.417L180.543 418.766C180.973 419.177 181.462 419.491 182.012 419.707C182.574 419.908 183.2 419.985 183.892 419.937C184.477 419.897 184.93 419.778 185.251 419.582C185.57 419.373 185.717 419.082 185.692 418.71C185.671 418.417 185.544 418.226 185.311 418.135C185.077 418.031 184.757 417.959 184.354 417.921L182.68 417.776C182.21 417.742 181.77 417.672 181.362 417.566C180.953 417.448 180.594 417.279 180.285 417.06C179.975 416.841 179.722 416.564 179.525 416.23C179.329 415.896 179.213 415.483 179.179 414.991C179.104 413.914 179.458 413.041 180.24 412.372C181.023 411.703 182.159 411.316 183.649 411.213C184.66 411.143 185.527 411.223 186.251 411.454C186.988 411.67 187.587 412.016 188.048 412.492L186.687 414.271C186.358 413.959 185.946 413.707 185.452 413.514C184.957 413.321 184.371 413.248 183.693 413.295C182.549 413.374 182.001 413.76 182.049 414.452C182.07 414.757 182.198 414.962 182.432 415.067C182.665 415.157 182.984 415.222 183.388 415.261L185.042 415.407C185.512 415.441 185.952 415.518 186.361 415.636C186.769 415.742 187.128 415.904 187.437 416.123C187.759 416.341 188.019 416.617 188.216 416.951C188.413 417.285 188.528 417.698 188.563 418.19C188.637 419.268 188.277 420.148 187.482 420.831C186.701 421.514 185.546 421.908 184.016 422.014ZM195.917 409.281C195.251 409.327 194.777 409.226 194.492 408.978C194.22 408.717 194.071 408.393 194.044 408.007L194.004 407.428C193.976 407.029 194.08 406.688 194.314 406.405C194.562 406.12 195.018 405.955 195.683 405.909C196.348 405.863 196.816 405.964 197.087 406.212C197.372 406.46 197.528 406.783 197.555 407.182L197.596 407.761C197.622 408.147 197.512 408.489 197.266 408.786C197.031 409.07 196.582 409.235 195.917 409.281ZM191.813 418.927L195.086 418.701L194.69 412.994L191.418 413.221L191.259 410.927L197.484 410.495L198.039 418.496L201.071 418.286L201.23 420.581L191.972 421.222L191.813 418.927ZM213.764 420.755C213.84 421.845 213.437 422.682 212.555 423.264C211.673 423.847 210.248 424.206 208.279 424.342C207.295 424.411 206.479 424.407 205.833 424.331C205.187 424.269 204.664 424.145 204.263 423.959C203.876 423.772 203.592 423.538 203.413 423.256C203.246 422.974 203.151 422.659 203.127 422.314C203.086 421.728 203.228 421.271 203.553 420.941C203.878 420.624 204.348 420.365 204.962 420.162L204.954 420.042C204.506 419.939 204.141 419.777 203.858 419.556C203.588 419.321 203.437 418.978 203.406 418.525C203.371 418.02 203.511 417.636 203.827 417.373C204.156 417.11 204.596 416.892 205.145 416.721L205.137 416.601C204.505 416.351 203.997 415.972 203.614 415.464C203.245 414.955 203.034 414.321 202.982 413.563C202.94 412.964 203.01 412.431 203.192 411.964C203.372 411.484 203.645 411.078 204.009 410.745C204.387 410.411 204.843 410.146 205.378 409.948C205.912 409.751 206.518 409.629 207.197 409.582C207.848 409.537 208.459 409.568 209.027 409.676L208.989 409.117C208.961 408.718 209.078 408.376 209.339 408.09C209.599 407.805 209.976 407.645 210.468 407.611L212.284 407.485L212.433 409.64L209.959 409.812L209.971 409.991C210.55 410.245 211.011 410.621 211.353 411.118C211.707 411.602 211.909 412.209 211.96 412.941C212.002 413.539 211.931 414.072 211.75 414.539C211.569 415.006 211.289 415.413 210.912 415.76C210.535 416.093 210.072 416.359 209.524 416.558C208.99 416.755 208.384 416.877 207.705 416.924C207.399 416.945 207.106 416.952 206.825 416.945C206.542 416.925 206.273 416.89 206.015 416.841C205.875 416.931 205.755 417.039 205.657 417.166C205.572 417.293 205.536 417.449 205.549 417.635C205.56 417.795 205.609 417.918 205.695 418.006C205.781 418.093 205.893 418.159 206.03 418.203C206.179 418.233 206.347 418.248 206.534 418.248C206.721 418.249 206.914 418.242 207.114 418.228L209.468 418.065C210.2 418.015 210.83 418.044 211.359 418.155C211.888 418.265 212.328 418.442 212.679 418.685C213.03 418.928 213.291 419.224 213.462 419.573C213.633 419.922 213.734 420.316 213.764 420.755ZM210.986 421.168C210.968 420.902 210.847 420.696 210.623 420.551C210.4 420.42 209.989 420.375 209.391 420.416L205.859 420.661C205.609 420.905 205.495 421.194 205.518 421.526C205.54 421.846 205.691 422.096 205.971 422.277C206.265 422.47 206.738 422.545 207.39 422.499L209.126 422.379C209.804 422.332 210.29 422.205 210.583 421.998C210.876 421.79 211.01 421.514 210.986 421.168ZM207.575 415.049C208.174 415.007 208.596 414.831 208.842 414.52C209.101 414.208 209.215 413.826 209.183 413.374L209.15 412.895C209.119 412.443 208.953 412.08 208.654 411.807C208.367 411.532 207.925 411.416 207.326 411.457C206.741 411.498 206.326 411.674 206.08 411.985C205.834 412.296 205.727 412.678 205.758 413.13L205.791 413.609C205.823 414.061 205.982 414.424 206.268 414.698C206.554 414.973 206.99 415.089 207.575 415.049ZM215.321 419.604L214.608 409.309L217.561 409.105L217.69 410.98L217.81 410.972C217.91 410.671 218.037 410.388 218.192 410.123C218.348 409.859 218.539 409.625 218.765 409.422C219.004 409.205 219.28 409.032 219.591 408.904C219.916 408.761 220.284 408.675 220.696 408.647C221.189 408.613 221.647 408.668 222.071 408.812C222.494 408.943 222.864 409.165 223.18 409.477C223.495 409.789 223.75 410.179 223.942 410.647C224.148 411.114 224.273 411.66 224.316 412.285L224.778 418.949L221.825 419.154L221.391 412.889C221.299 411.559 220.674 410.934 219.517 411.014C219.291 411.03 219.067 411.078 218.846 411.161C218.637 411.229 218.45 411.335 218.286 411.48C218.122 411.612 217.993 411.774 217.899 411.968C217.819 412.161 217.788 412.383 217.805 412.636L218.274 419.4L215.321 419.604ZM44.0793 455.645L43.9397 455.655C43.717 456.298 43.38 456.836 42.9288 457.269C42.49 457.687 41.8582 457.924 41.0335 457.981C40.4615 458.021 39.9288 457.951 39.4352 457.771C38.9549 457.591 38.5266 457.293 38.1504 456.878C37.7874 456.462 37.4827 455.922 37.2362 455.257C37.0029 454.592 36.8541 453.793 36.7896 452.862C36.7251 451.931 36.7624 451.12 36.9017 450.429C37.0542 449.737 37.2815 449.159 37.5836 448.697C37.8991 448.235 38.2822 447.881 38.733 447.635C39.1971 447.389 39.7151 447.247 40.2871 447.207C40.6995 447.178 41.0689 447.206 41.3955 447.291C41.7221 447.375 42.0116 447.502 42.2639 447.672C42.5296 447.84 42.7581 448.052 42.9494 448.306C43.1531 448.545 43.3321 448.814 43.4863 449.11L43.626 449.101L43.1864 442.756L46.1394 442.551L47.1622 457.316L44.2093 457.521L44.0793 455.645ZM42.1515 455.598C42.6702 455.562 43.1071 455.405 43.462 455.127C43.8303 454.847 43.9955 454.435 43.9577 453.889L43.7476 450.857C43.7098 450.311 43.4893 449.926 43.0861 449.7C42.6961 449.473 42.2418 449.377 41.723 449.413C41.0579 449.459 40.5601 449.701 40.2295 450.138C39.898 450.562 39.7572 451.133 39.8069 451.851L39.9175 453.447C39.9673 454.166 40.186 454.719 40.5737 455.106C40.9605 455.48 41.4864 455.644 42.1515 455.598ZM54.6131 457.04C52.884 457.16 51.5406 456.772 50.583 455.876C49.6255 454.98 49.0896 453.708 48.9753 452.058C48.9173 451.22 48.9783 450.461 49.1583 449.78C49.3508 449.085 49.6437 448.49 50.0371 447.995C50.4428 447.486 50.9434 447.09 51.5387 446.808C52.1463 446.512 52.8359 446.338 53.6074 446.284C54.3789 446.231 55.0793 446.309 55.7087 446.52C56.3371 446.717 56.8798 447.027 57.3368 447.449C57.7938 447.872 58.1579 448.401 58.4292 449.038C58.7128 449.659 58.8823 450.369 58.9376 451.168L58.9984 452.045L51.9553 452.533L51.9677 452.713C52.0138 453.378 52.2573 453.902 52.6982 454.286C53.1382 454.657 53.7572 454.814 54.5553 454.759C55.1672 454.717 55.6848 454.567 56.1081 454.311C56.5304 454.041 56.8879 453.702 57.1804 453.294L58.8968 454.919C58.5318 455.439 58.0027 455.903 57.3093 456.312C56.6159 456.721 55.7172 456.964 54.6131 457.04ZM53.7738 448.398C53.1354 448.442 52.6371 448.677 52.279 449.103C51.9333 449.514 51.7834 450.053 51.8295 450.718L51.8406 450.877L55.9906 450.59L55.9796 450.43C55.9326 449.752 55.7095 449.233 55.3103 448.873C54.9245 448.512 54.4123 448.354 53.7738 448.398ZM67.0788 455.936C66.0147 456.01 65.2039 455.786 64.6465 455.263C64.089 454.74 63.7803 454.046 63.7204 453.182L63.3721 448.154L60.5788 448.347L60.4199 446.053L62.2355 445.927C62.6745 445.897 62.9811 445.789 63.1553 445.603C63.3295 445.417 63.4005 445.091 63.3683 444.626L63.201 442.211L65.9145 442.024L66.1661 445.655L70.1765 445.377L70.3354 447.671L66.325 447.949L66.7204 453.656L70.7307 453.378L70.8897 455.672L67.0788 455.936ZM78.5402 455.383C76.811 455.503 75.4676 455.115 74.5101 454.219C73.5525 453.323 73.0166 452.05 72.9024 450.401C72.8443 449.563 72.9053 448.803 73.0854 448.123C73.2778 447.428 73.5707 446.833 73.9641 446.338C74.3699 445.828 74.8704 445.433 75.4657 445.151C76.0733 444.855 76.7629 444.68 77.5344 444.627C78.3059 444.573 79.0063 444.652 79.6357 444.862C80.2641 445.059 80.8069 445.369 81.2638 445.792C81.7208 446.214 82.0849 446.744 82.3562 447.38C82.6399 448.002 82.8093 448.712 82.8646 449.51L82.9255 450.388L75.8823 450.876L75.8948 451.055C75.9408 451.72 76.1843 452.245 76.6252 452.629C77.0652 452.999 77.6843 453.157 78.4824 453.101C79.0942 453.059 79.6118 452.91 80.0351 452.653C80.4574 452.383 80.8149 452.044 81.1074 451.637L82.8238 453.262C82.4589 453.782 81.9297 454.246 81.2363 454.655C80.5429 455.064 79.6442 455.306 78.5402 455.383ZM77.7009 446.74C77.0624 446.784 76.5641 447.019 76.206 447.445C75.8603 447.857 75.7105 448.395 75.7566 449.06L75.7676 449.22L79.9177 448.932L79.9066 448.773C79.8596 448.094 79.6365 447.575 79.2374 447.215C78.8515 446.854 78.3393 446.696 77.7009 446.74ZM90.6434 454.544C89.832 454.601 89.0921 454.532 88.4237 454.337C87.7678 454.129 87.1975 453.807 86.713 453.373C86.2418 452.938 85.8635 452.396 85.578 451.748C85.2925 451.099 85.1207 450.356 85.0626 449.518C85.0046 448.68 85.0722 447.92 85.2656 447.239C85.4589 446.557 85.759 445.968 86.1657 445.472C86.5857 444.975 87.1066 444.585 87.7285 444.301C88.3627 444.004 89.0789 443.827 89.877 443.772C91.0076 443.693 91.9283 443.863 92.6389 444.282C93.3619 444.686 93.9292 445.255 94.3409 445.988L92.152 447.383C91.9382 446.997 91.6691 446.681 91.3447 446.437C91.0336 446.191 90.5988 446.087 90.0401 446.126C89.3617 446.173 88.8501 446.409 88.5054 446.834C88.1729 447.244 88.0302 447.789 88.0772 448.467L88.1933 450.143C88.2403 450.822 88.4572 451.348 88.844 451.722C89.2432 452.082 89.7952 452.238 90.5002 452.189C91.0722 452.149 91.5086 451.985 91.8094 451.697C92.1235 451.408 92.3788 451.043 92.5755 450.601L94.8986 451.724C94.5787 452.508 94.0757 453.157 93.3897 453.673C92.716 454.174 91.8006 454.464 90.6434 454.544ZM102.969 453.45C101.905 453.524 101.094 453.299 100.537 452.776C99.9796 452.254 99.6709 451.56 99.611 450.695L99.2627 445.668L96.4694 445.861L96.3104 443.567L98.1261 443.441C98.565 443.41 98.8716 443.302 99.0458 443.116C99.2201 442.931 99.2911 442.605 99.2588 442.139L99.0916 439.725L101.805 439.537L102.057 443.168L106.067 442.891L106.226 445.185L102.216 445.463L102.611 451.169L106.621 450.891L106.78 453.186L102.969 453.45ZM114.431 452.897C112.702 453.016 111.358 452.628 110.401 451.732C109.443 450.836 108.907 449.564 108.793 447.914C108.735 447.076 108.796 446.317 108.976 445.636C109.168 444.941 109.461 444.346 109.855 443.851C110.26 443.342 110.761 442.946 111.356 442.665C111.964 442.369 112.653 442.194 113.425 442.14C114.196 442.087 114.897 442.165 115.526 442.376C116.155 442.573 116.697 442.883 117.154 443.305C117.611 443.728 117.975 444.258 118.247 444.894C118.53 445.516 118.7 446.226 118.755 447.024L118.816 447.902L111.773 448.389L111.785 448.569C111.831 449.234 112.075 449.759 112.516 450.142C112.956 450.513 113.575 450.67 114.373 450.615C114.985 450.573 115.502 450.423 115.926 450.167C116.348 449.897 116.705 449.558 116.998 449.15L118.714 450.775C118.349 451.295 117.82 451.76 117.127 452.168C116.433 452.577 115.535 452.82 114.431 452.897ZM113.591 444.254C112.953 444.298 112.455 444.533 112.097 444.959C111.751 445.37 111.601 445.909 111.647 446.574L111.658 446.733L115.808 446.446L115.797 446.286C115.75 445.608 115.527 445.089 115.128 444.729C114.742 444.368 114.23 444.21 113.591 444.254ZM127.824 449.844L127.684 449.853C127.462 450.497 127.125 451.035 126.673 451.467C126.235 451.885 125.603 452.123 124.778 452.18C124.206 452.219 123.673 452.149 123.18 451.97C122.699 451.789 122.271 451.491 121.895 451.076C121.532 450.66 121.227 450.12 120.981 449.456C120.748 448.79 120.599 447.992 120.534 447.061C120.47 446.13 120.507 445.318 120.646 444.627C120.799 443.935 121.026 443.358 121.328 442.896C121.644 442.433 122.027 442.079 122.478 441.834C122.942 441.588 123.46 441.445 124.032 441.406C124.444 441.377 124.814 441.405 125.14 441.489C125.467 441.573 125.756 441.7 126.009 441.87C126.274 442.039 126.503 442.25 126.694 442.504C126.898 442.744 127.077 443.012 127.231 443.309L127.371 443.299L126.931 436.955L129.884 436.75L130.907 451.515L127.954 451.719L127.824 449.844ZM125.896 449.797C126.415 449.761 126.852 449.604 127.207 449.325C127.575 449.046 127.74 448.633 127.702 448.088L127.492 445.055C127.454 444.51 127.234 444.124 126.831 443.898C126.441 443.671 125.986 443.576 125.468 443.612C124.803 443.658 124.305 443.899 123.974 444.337C123.643 444.76 123.502 445.332 123.552 446.05L123.662 447.646C123.712 448.364 123.931 448.917 124.318 449.305C124.705 449.679 125.231 449.843 125.896 449.797ZM144.314 435.75L147.267 435.546L147.706 441.891L147.826 441.882C147.925 441.581 148.053 441.299 148.208 441.034C148.364 440.769 148.555 440.535 148.781 440.333C149.02 440.116 149.295 439.943 149.607 439.814C149.932 439.671 150.3 439.586 150.712 439.557C151.204 439.523 151.663 439.578 152.087 439.723C152.51 439.854 152.88 440.075 153.195 440.388C153.511 440.7 153.765 441.09 153.958 441.558C154.164 442.025 154.289 442.571 154.332 443.196L154.794 449.86L151.841 450.064L151.407 443.799C151.315 442.469 150.69 441.844 149.533 441.924C149.307 441.94 149.083 441.989 148.861 442.071C148.652 442.139 148.466 442.246 148.302 442.391C148.138 442.522 148.008 442.685 147.915 442.878C147.835 443.071 147.803 443.294 147.821 443.547L148.29 450.31L145.337 450.515L144.314 435.75ZM162.285 449.581C160.556 449.701 159.212 449.313 158.255 448.417C157.297 447.521 156.761 446.249 156.647 444.599C156.589 443.761 156.65 443.002 156.83 442.321C157.022 441.626 157.315 441.031 157.709 440.536C158.114 440.027 158.615 439.631 159.21 439.349C159.818 439.053 160.508 438.879 161.279 438.825C162.05 438.772 162.751 438.85 163.38 439.061C164.009 439.258 164.551 439.567 165.008 439.99C165.465 440.413 165.83 440.942 166.101 441.579C166.384 442.2 166.554 442.91 166.609 443.708L166.67 444.586L159.627 445.074L159.639 445.254C159.685 445.919 159.929 446.443 160.37 446.827C160.81 447.198 161.429 447.355 162.227 447.3C162.839 447.258 163.356 447.108 163.78 446.852C164.202 446.582 164.559 446.243 164.852 445.835L166.568 447.46C166.203 447.98 165.674 448.444 164.981 448.853C164.288 449.262 163.389 449.505 162.285 449.581ZM161.445 440.939C160.807 440.983 160.309 441.218 159.951 441.644C159.605 442.055 159.455 442.594 159.501 443.259L159.512 443.418L163.662 443.131L163.651 442.971C163.604 442.293 163.381 441.774 162.982 441.414C162.596 441.053 162.084 440.895 161.445 440.939ZM169.284 446.55L171.659 446.386L171.263 440.68L168.889 440.844L168.73 438.55L174.057 438.181L174.259 441.094L174.399 441.084C174.466 440.705 174.567 440.337 174.703 439.98C174.851 439.609 175.042 439.282 175.277 438.998C175.523 438.7 175.827 438.459 176.189 438.273C176.55 438.088 176.984 437.978 177.489 437.943L178.467 437.875L178.655 440.589L176.46 440.741C175.728 440.791 175.191 441.049 174.849 441.514C174.506 441.965 174.357 442.504 174.4 443.129L174.611 446.181L178.003 445.946L178.162 448.241L169.443 448.845L169.284 446.55ZM186.212 447.924C184.483 448.044 183.139 447.656 182.182 446.76C181.224 445.864 180.688 444.591 180.574 442.942C180.516 442.104 180.577 441.344 180.757 440.663C180.949 439.969 181.242 439.374 181.636 438.878C182.042 438.369 182.542 437.974 183.137 437.692C183.745 437.396 184.435 437.221 185.206 437.168C185.978 437.114 186.678 437.193 187.307 437.403C187.936 437.6 188.478 437.91 188.935 438.333C189.392 438.755 189.757 439.285 190.028 439.921C190.312 440.543 190.481 441.253 190.536 442.051L190.597 442.929L183.554 443.417L183.566 443.596C183.612 444.261 183.856 444.786 184.297 445.17C184.737 445.54 185.356 445.698 186.154 445.642C186.766 445.6 187.283 445.451 187.707 445.194C188.129 444.924 188.487 444.585 188.779 444.177L190.495 445.803C190.131 446.323 189.601 446.787 188.908 447.196C188.215 447.605 187.316 447.847 186.212 447.924ZM185.372 439.281C184.734 439.325 184.236 439.56 183.878 439.986C183.532 440.398 183.382 440.936 183.428 441.601L183.439 441.761L187.589 441.473L187.578 441.314C187.531 440.635 187.308 440.116 186.909 439.756C186.523 439.395 186.011 439.237 185.372 439.281Z" fill="#FCFCFC"/>
<path d="M307.398 405.708C307.384 405.511 307.409 405.314 307.472 405.127C307.535 404.94 307.633 404.768 307.763 404.619C307.892 404.471 308.049 404.349 308.226 404.261C308.402 404.173 308.594 404.121 308.79 404.108C308.987 404.094 309.184 404.119 309.371 404.182C309.558 404.244 309.73 404.343 309.879 404.473C310.028 404.602 310.149 404.759 310.237 404.936C310.325 405.112 310.377 405.304 310.391 405.5L310.805 411.486C310.833 411.883 310.701 412.274 310.44 412.575C310.179 412.875 309.809 413.059 309.412 413.086C309.016 413.114 308.624 412.982 308.324 412.721C308.024 412.46 307.84 412.09 307.812 411.693L307.398 405.708ZM311.377 405.265L311.752 410.682C311.777 411.052 311.906 411.409 312.122 411.711C312.339 412.013 312.636 412.248 312.979 412.391L313.031 412.412C313.603 412.651 314.224 412.753 314.842 412.71L320.246 412.336C320.707 412.304 321.143 412.113 321.48 411.796C321.816 411.479 322.033 411.055 322.092 410.596L322.874 404.527C322.912 404.234 322.884 403.936 322.793 403.654C322.701 403.373 322.549 403.115 322.346 402.9C322.143 402.685 321.895 402.517 321.619 402.409C321.344 402.301 321.048 402.256 320.753 402.277L317.201 402.523L316.925 398.532C316.888 398.003 316.643 397.51 316.242 397.162C315.842 396.814 315.32 396.638 314.791 396.675C314.527 396.693 314.28 396.816 314.106 397.016C313.932 397.216 313.844 397.477 313.863 397.742L313.909 398.407C313.969 399.271 313.747 400.13 313.277 400.857L312.009 402.815C311.539 403.542 311.317 404.401 311.377 405.265Z" fill="#FCFCFC"/>
<path d="M325.295 432.535C325.322 432.932 325.191 433.323 324.93 433.623C324.668 433.924 324.299 434.108 323.902 434.135C323.505 434.163 323.113 434.031 322.813 433.77C322.513 433.509 322.329 433.139 322.302 432.742L321.887 426.757C321.86 426.36 321.991 425.968 322.252 425.668C322.513 425.368 322.883 425.184 323.28 425.157C323.677 425.129 324.068 425.26 324.368 425.522C324.668 425.783 324.852 426.152 324.88 426.549L325.295 432.535ZM321.316 432.978L320.94 427.561C320.915 427.19 320.787 426.834 320.57 426.532C320.354 426.23 320.057 425.995 319.714 425.852L319.663 425.83C319.089 425.591 318.468 425.49 317.848 425.533L312.446 425.907C311.984 425.939 311.548 426.13 311.212 426.447C310.875 426.764 310.659 427.188 310.6 427.647L309.817 433.715C309.779 434.009 309.807 434.307 309.899 434.589C309.99 434.87 310.143 435.128 310.346 435.343C310.549 435.558 310.797 435.726 311.073 435.834C311.348 435.942 311.645 435.987 311.94 435.966L315.491 435.72L315.768 439.711C315.804 440.24 316.05 440.733 316.45 441.081C316.85 441.429 317.372 441.604 317.901 441.568C318.166 441.549 318.412 441.427 318.586 441.226C318.76 441.026 318.848 440.765 318.83 440.501L318.784 439.835C318.724 438.972 318.946 438.112 319.416 437.386L320.683 435.428C321.154 434.701 321.376 433.841 321.316 432.978Z" fill="#FCFCFC"/>
<rect x="37.6812" y="477.018" width="278" height="12" transform="rotate(-3.96289 37.6812 477.018)" fill="#FCFCFC"/>
<rect x="38.7178" y="491.983" width="258" height="12" transform="rotate(-3.96289 38.7178 491.983)" fill="#FCFCFC"/>
<rect x="39.7545" y="506.947" width="170" height="12" transform="rotate(-3.96289 39.7545 506.947)" fill="#FCFCFC"/>
</g>
<defs>
<filter id="filter0_d_203_73" x="148.097" y="136" width="411.807" height="208.362" filterUnits="userSpaceOnUse" color-interpolation-filters="sRGB">
<feFlood flood-opacity="0" result="BackgroundImageFix"/>
<feColorMatrix in="SourceAlpha" type="matrix" values="0 0 0 0 0 0 0 0 0 0 0 0 0 0 0 0 0 0 127 0" result="hardAlpha"/>
<feOffset dy="4"/>
<feGaussianBlur stdDeviation="5"/>
<feComposite in2="hardAlpha" operator="out"/>
<feColorMatrix type="matrix" values="0 0 0 0 0 0 0 0 0 0 0 0 0 0 0 0 0 0 0.15 0"/>
<feBlend mode="normal" in2="BackgroundImageFix" result="effect1_dropShadow_203_73"/>
<feBlend mode="normal" in="SourceGraphic" in2="effect1_dropShadow_203_73" result="shape"/>
</filter>
<filter id="filter1_d_203_73" x="219.684" y="582.515" width="359.258" height="188.345" filterUnits="userSpaceOnUse" color-interpolation-filters="sRGB">
<feFlood flood-opacity="0" result="BackgroundImageFix"/>
<feColorMatrix in="SourceAlpha" type="matrix" values="0 0 0 0 0 0 0 0 0 0 0 0 0 0 0 0 0 0 127 0" result="hardAlpha"/>
<feOffset dy="4"/>
<feGaussianBlur stdDeviation="5"/>
<feComposite in2="hardAlpha" operator="out"/>
<feColorMatrix type="matrix" values="0 0 0 0 0 0 0 0 0 0 0 0 0 0 0 0 0 0 0.25 0"/>
<feBlend mode="normal" in2="BackgroundImageFix" result="effect1_dropShadow_203_73"/>
<feBlend mode="normal" in="SourceGraphic" in2="effect1_dropShadow_203_73" result="shape"/>
</filter>
<filter id="filter2_d_203_73" x="0" y="363" width="367.301" height="196.457" filterUnits="userSpaceOnUse" color-interpolation-filters="sRGB">
<feFlood flood-opacity="0" result="BackgroundImageFix"/>
<feColorMatrix in="SourceAlpha" type="matrix" values="0 0 0 0 0 0 0 0 0 0 0 0 0 0 0 0 0 0 127 0" result="hardAlpha"/>
<feOffset dx="5" dy="4"/>
<feGaussianBlur stdDeviation="7"/>
<feComposite in2="hardAlpha" operator="out"/>
<feColorMatrix type="matrix" values="0 0 0 0 0 0 0 0 0 0 0 0 0 0 0 0 0 0 0.25 0"/>
<feBlend mode="normal" in2="BackgroundImageFix" result="effect1_dropShadow_203_73"/>
<feBlend mode="normal" in="SourceGraphic" in2="effect1_dropShadow_203_73" result="shape"/>
</filter>
<clipPath id="clip0_203_73">
<rect width="330" height="146" fill="white" transform="translate(9 395.806) rotate(-3.96289)"/>
</clipPath>
</defs>
</svg>
