<svg width="63" height="16" viewBox="0 0 63 16" fill="none" xmlns="http://www.w3.org/2000/svg">
<path d="M4.16175 3.48852C4.92532 3.48852 5.62186 3.67796 6.25137 4.05683C6.8867 4.42987 7.39089 4.93406 7.76393 5.5694C8.14281 6.19891 8.33224 6.89545 8.33224 7.65902C8.33224 8.42259 8.14281 9.11913 7.76393 9.74863C7.39089 10.3781 6.8867 10.8823 6.25137 11.2612C5.62186 11.6342 4.92532 11.8208 4.16175 11.8208C3.39818 11.8208 2.70164 11.6342 2.07213 11.2612C1.44262 10.8823 0.938433 10.3781 0.559563 9.74863C0.186521 9.11913 0 8.42259 0 7.65902C0 6.89545 0.186521 6.19891 0.559563 5.5694C0.938433 4.93406 1.44262 4.42987 2.07213 4.05683C2.70164 3.67796 3.39818 3.48852 4.16175 3.48852ZM4.18798 5.07978C3.47687 5.07978 2.87067 5.33042 2.3694 5.83169C1.86812 6.33297 1.61749 6.93916 1.61749 7.65027C1.61749 8.36721 1.86812 8.97632 2.3694 9.4776C2.87067 9.97887 3.47687 10.2295 4.18798 10.2295C4.90492 10.2295 5.51111 9.97887 6.00656 9.4776C6.50783 8.97632 6.75847 8.36721 6.75847 7.65027C6.75847 6.93916 6.50783 6.33297 6.00656 5.83169C5.51111 5.33042 4.90492 5.07978 4.18798 5.07978Z" fill="black"/>
<path d="M9.12787 0H10.7191V11.8208H9.12787V0Z" fill="black"/>
<path d="M11.7683 3.50601H13.3596V7.6765C13.3712 8.27104 13.5432 8.7898 13.8754 9.23279C14.2135 9.66995 14.6506 9.97013 15.1869 10.1333C15.729 9.9643 16.169 9.65829 16.5071 9.2153C16.8452 8.77231 17.0142 8.25647 17.0142 7.66776V3.50601H18.6055V11.8383C18.5996 12.6077 18.4102 13.3042 18.0372 13.9279C17.6641 14.5574 17.1628 15.0587 16.5333 15.4317C15.9038 15.8106 15.2073 16 14.4437 16C13.9366 16 13.4557 15.9126 13.0011 15.7377C12.5464 15.5687 12.1355 15.3297 11.7683 15.0208L12.8962 13.8929C13.345 14.2368 13.8608 14.4087 14.4437 14.4087C15.1607 14.4087 15.7668 14.1581 16.2623 13.6568C16.7636 13.1556 17.0142 12.5494 17.0142 11.8383V10.9377C16.6878 11.2 16.3264 11.4069 15.9301 11.5585H14.4437C13.6627 11.2495 13.0273 10.757 12.5377 10.0809C12.0539 9.40474 11.7974 8.62659 11.7683 7.74645V3.50601Z" fill="black"/>
<path d="M19.6546 3.48852H21.2459V4.38033C21.992 3.78579 22.8488 3.48852 23.8164 3.48852C24.51 3.48852 25.1483 3.6459 25.7311 3.96066C26.314 4.26958 26.8007 4.68634 27.1913 5.21093C27.576 4.68634 28.0597 4.26958 28.6426 3.96066C29.2255 3.6459 29.8638 3.48852 30.5574 3.48852C31.3035 3.48852 31.9854 3.66922 32.6033 4.0306C33.227 4.39199 33.7253 4.87577 34.0984 5.48197C34.4772 6.08816 34.6842 6.76721 34.7191 7.51913V11.8208H33.1279V7.64153C33.1104 6.91293 32.8539 6.30383 32.3585 5.81421C31.8689 5.32459 31.2685 5.07978 30.5574 5.07978C29.8404 5.07978 29.2313 5.33042 28.7301 5.83169C28.2346 6.33297 27.9869 6.93916 27.9869 7.65027V11.8208H26.3869V7.64153C26.3694 6.91293 26.1158 6.30383 25.6262 5.81421C25.1366 5.32459 24.5333 5.07978 23.8164 5.07978C23.1053 5.07978 22.4991 5.33042 21.9978 5.83169C21.4965 6.33297 21.2459 6.93916 21.2459 7.65027V11.8208H19.6546V3.48852Z" fill="black"/>
<path d="M39.9388 3.45355C39.1752 3.45355 38.4787 3.64299 37.8492 4.02186C37.2197 4.3949 36.7155 4.89617 36.3366 5.52568C35.9636 6.15519 35.777 6.85173 35.777 7.6153V15.2743H37.3683V10.8852C38.1144 11.4856 38.9712 11.7858 39.9388 11.7858C40.7024 11.7858 41.3989 11.5993 42.0284 11.2262C42.6637 10.8474 43.1679 10.3432 43.541 9.71366C43.9199 9.07832 44.1093 8.37887 44.1093 7.6153C44.1093 6.85173 43.9199 6.15519 43.541 5.52568C43.1679 4.89617 42.6637 4.3949 42.0284 4.02186C41.3989 3.64299 40.7024 3.45355 39.9388 3.45355ZM39.9388 5.04481C40.6557 5.04481 41.2619 5.29545 41.7574 5.79672C42.2587 6.298 42.5093 6.90419 42.5093 7.6153C42.5093 8.33224 42.2587 8.94135 41.7574 9.44262C41.2619 9.9439 40.6557 10.1945 39.9388 10.1945C39.2277 10.1945 38.6215 9.9439 38.1202 9.44262C37.6189 8.94135 37.3683 8.33224 37.3683 7.6153C37.3683 6.90419 37.6189 6.298 38.1202 5.79672C38.6215 5.29545 39.2277 5.04481 39.9388 5.04481ZM35.777 7.73771V7.77268V7.73771ZM35.7858 7.85137V7.89508V7.85137ZM35.7945 7.96503V8.00874V7.96503ZM35.8033 8.07869C35.8033 8.09618 35.8062 8.11075 35.812 8.1224C35.8062 8.11075 35.8033 8.09618 35.8033 8.07869ZM35.8208 8.20109V8.23607V8.20109ZM35.8382 8.3235V8.34973V8.3235ZM35.8645 8.46339V8.48087V8.46339ZM35.8907 8.56831C35.8907 8.57996 35.8936 8.59162 35.8995 8.60328C35.8936 8.59162 35.8907 8.57996 35.8907 8.56831ZM35.9169 8.68197C35.9169 8.69362 35.9199 8.70528 35.9257 8.71694C35.9199 8.70528 35.9169 8.69362 35.9169 8.68197ZM35.9432 8.78689C35.949 8.79854 35.9548 8.8102 35.9607 8.82186C35.9548 8.8102 35.949 8.79854 35.9432 8.78689ZM35.9781 8.90055C35.984 8.9122 35.9869 8.92386 35.9869 8.93552C35.9869 8.92386 35.984 8.9122 35.9781 8.90055ZM36.0219 9.01421C36.0219 9.02004 36.0248 9.02878 36.0306 9.04044C36.0248 9.02878 36.0219 9.02004 36.0219 9.01421ZM36.1093 9.24153C36.1151 9.25319 36.118 9.26193 36.118 9.26776C36.118 9.26193 36.1151 9.25319 36.1093 9.24153ZM36.153 9.34645C36.1588 9.35811 36.1647 9.36685 36.1705 9.37268C36.1647 9.36685 36.1588 9.35811 36.153 9.34645ZM36.2055 9.44262C36.2113 9.45428 36.2171 9.46594 36.2229 9.4776C36.2171 9.46594 36.2113 9.45428 36.2055 9.44262ZM36.2579 9.54754C36.2579 9.5592 36.2608 9.56794 36.2667 9.57377C36.2608 9.56794 36.2579 9.5592 36.2579 9.54754ZM36.3104 9.65246C36.3162 9.65829 36.3191 9.66412 36.3191 9.66995C36.3191 9.66412 36.3162 9.65829 36.3104 9.65246ZM36.4415 9.8623C36.4415 9.86812 36.4444 9.87104 36.4503 9.87104C36.4444 9.87104 36.4415 9.86812 36.4415 9.8623ZM36.5027 9.95847C36.5086 9.9643 36.5144 9.97013 36.5202 9.97596C36.5144 9.97013 36.5086 9.9643 36.5027 9.95847ZM36.5639 10.0459C36.5698 10.0576 36.5756 10.0663 36.5814 10.0721C36.5756 10.0663 36.5698 10.0576 36.5639 10.0459ZM36.6251 10.1333L36.6514 10.1596L36.6251 10.1333ZM36.7038 10.2208C36.7097 10.2324 36.7155 10.2412 36.7213 10.247C36.7155 10.2412 36.7097 10.2324 36.7038 10.2208ZM36.7738 10.3169C36.7796 10.3228 36.7854 10.3286 36.7913 10.3344C36.7854 10.3286 36.7796 10.3228 36.7738 10.3169ZM36.9399 10.5005L36.9486 10.5093L36.9399 10.5005ZM37.0186 10.5705C37.0244 10.5821 37.0302 10.5909 37.0361 10.5967C37.0302 10.5909 37.0244 10.5821 37.0186 10.5705ZM37.0973 10.6492L37.1235 10.6754L37.0973 10.6492ZM37.176 10.7279C37.1876 10.7337 37.1964 10.7395 37.2022 10.7454C37.1964 10.7395 37.1876 10.7337 37.176 10.7279ZM37.2634 10.7978L37.2809 10.8153L37.2634 10.7978Z" fill="black"/>
<path d="M53.4995 11.8208H51.8995V10.9202C51.1534 11.5206 50.2965 11.8208 49.329 11.8208C48.577 11.8208 47.8863 11.6372 47.2568 11.2699C46.6331 10.8969 46.1348 10.4044 45.7617 9.79235C45.3887 9.1745 45.1905 8.4867 45.1672 7.72896V3.48852H46.7585V7.65902C46.776 8.39344 47.0295 9.00546 47.5191 9.49508C48.0146 9.97887 48.6178 10.2208 49.329 10.2208C50.0459 10.2208 50.6521 9.97304 51.1475 9.4776C51.6488 8.97632 51.8995 8.36721 51.8995 7.65027V3.48852H53.4995V11.8208Z" fill="black"/>
<path d="M58.5268 3.49727H58.6842C58.7424 3.5031 58.8007 3.50893 58.859 3.51475H58.8678C58.9843 3.52058 59.098 3.53515 59.2087 3.55847H59.2175C59.2466 3.5643 59.2787 3.57013 59.3137 3.57596C59.3311 3.57596 59.3486 3.57887 59.3661 3.5847C59.3719 3.5847 59.3807 3.58761 59.3923 3.59344H59.4098C59.4273 3.59927 59.4477 3.60219 59.471 3.60219C59.4827 3.60801 59.4944 3.61384 59.506 3.61967C59.5235 3.61967 59.5381 3.62259 59.5497 3.62842H59.5672C59.573 3.63424 59.5789 3.63716 59.5847 3.63716H59.6022C59.6197 3.64299 59.6342 3.64882 59.6459 3.65464C59.6692 3.66047 59.6925 3.6663 59.7158 3.67213C59.7217 3.67213 59.7275 3.67505 59.7333 3.68087H59.7596C59.7712 3.6867 59.7858 3.69253 59.8033 3.69836C59.8149 3.70419 59.8237 3.7071 59.8295 3.7071C59.8587 3.71876 59.8878 3.73042 59.9169 3.74208H59.9257C59.9607 3.75373 59.9927 3.76539 60.0219 3.77705H60.0306C60.0481 3.78871 60.0685 3.79745 60.0918 3.80328C60.0918 3.80328 60.0947 3.80619 60.1005 3.81202H60.1093C60.1209 3.81785 60.1297 3.82077 60.1355 3.82077C60.1588 3.83242 60.1821 3.84408 60.2055 3.85574C60.2113 3.85574 60.2171 3.85865 60.2229 3.86448C60.2346 3.87031 60.2463 3.87614 60.2579 3.88197H60.2667C60.2783 3.8878 60.29 3.89362 60.3016 3.89945C60.3075 3.89945 60.3133 3.90237 60.3191 3.9082C60.3483 3.91985 60.3774 3.93443 60.4066 3.95191C60.4124 3.95774 60.4211 3.96066 60.4328 3.96066C60.4852 3.9898 60.5406 4.02186 60.5989 4.05683L60.5902 4.04809C60.6018 4.05392 60.6135 4.05975 60.6251 4.06557C61.4936 4.60182 62.0911 5.3275 62.4175 6.24262L60.8874 6.65355C60.6718 6.14645 60.3075 5.73843 59.7945 5.42951C59.7829 5.42368 59.7712 5.41785 59.7596 5.41202C59.7479 5.40619 59.7392 5.40036 59.7333 5.39454C59.7158 5.38871 59.7013 5.37996 59.6896 5.36831L59.6372 5.34208C59.6197 5.33625 59.5993 5.3275 59.576 5.31585C59.5643 5.31002 59.5526 5.30419 59.541 5.29836C59.5293 5.29253 59.5177 5.28962 59.506 5.28962C59.4827 5.27796 59.4594 5.2663 59.4361 5.25464C59.4186 5.24882 59.404 5.2459 59.3923 5.2459L59.3399 5.21967C59.3282 5.21967 59.3195 5.21676 59.3137 5.21093C59.2845 5.2051 59.2583 5.19927 59.235 5.19344C59.2233 5.18761 59.2117 5.18179 59.2 5.17596H59.1913C59.1563 5.1643 59.1242 5.15556 59.0951 5.14973C59.0834 5.14973 59.0689 5.14681 59.0514 5.14098C59.028 5.13515 59.0018 5.12933 58.9727 5.1235H58.9377C58.9086 5.11767 58.8765 5.11184 58.8415 5.10601H58.824C58.7891 5.10018 58.7541 5.09435 58.7191 5.08852H58.5967C58.5792 5.0827 58.5647 5.07978 58.553 5.07978H58.4393C58.4102 5.08561 58.384 5.08852 58.3607 5.08852H58.2994C58.2703 5.09435 58.2441 5.09727 58.2208 5.09727H58.212C58.2004 5.1031 58.1858 5.10601 58.1683 5.10601C58.145 5.10601 58.1246 5.10893 58.1071 5.11475C58.0896 5.11475 58.0721 5.11767 58.0546 5.1235C58.0313 5.12933 58.0109 5.13224 57.9934 5.13224C57.976 5.13807 57.9585 5.1439 57.941 5.14973C57.9235 5.14973 57.9031 5.15264 57.8798 5.15847C57.8623 5.1643 57.8477 5.17013 57.8361 5.17596C57.8011 5.18179 57.769 5.19053 57.7399 5.20219H57.7311C57.7195 5.20801 57.7078 5.21093 57.6962 5.21093C57.6729 5.22259 57.6495 5.23133 57.6262 5.23716C57.6087 5.24299 57.5942 5.24882 57.5825 5.25464C57.5592 5.2663 57.5388 5.27505 57.5213 5.28087C57.5038 5.2867 57.4893 5.29253 57.4776 5.29836C57.4543 5.31002 57.431 5.32168 57.4076 5.33333C57.396 5.33916 57.3843 5.34499 57.3727 5.35082C57.3435 5.36248 57.3115 5.37705 57.2765 5.39454L57.259 5.41202C57.2299 5.42368 57.2036 5.43825 57.1803 5.45574C57.1687 5.46157 57.157 5.4674 57.1454 5.47322C57.122 5.49071 57.1016 5.50528 57.0842 5.51694C57.0725 5.52277 57.0608 5.53151 57.0492 5.54317C57.0259 5.55483 57.0025 5.5694 56.9792 5.58689L56.953 5.61311C56.9239 5.6306 56.8947 5.65392 56.8656 5.68306C56.8597 5.68306 56.8539 5.68597 56.8481 5.6918C56.8306 5.70929 56.8102 5.72678 56.7869 5.74426L61.0273 8.19235L62.4525 9.01421C62.4408 9.04335 62.4291 9.0725 62.4175 9.10164V9.11038C62.4058 9.13953 62.3942 9.16867 62.3825 9.19781V9.20656C62.3709 9.2357 62.3592 9.26193 62.3475 9.28525C62.3417 9.29107 62.3388 9.2969 62.3388 9.30273C62.3271 9.32605 62.3155 9.35228 62.3038 9.38142C62.3038 9.38725 62.3009 9.39308 62.2951 9.39891C62.2834 9.42222 62.2718 9.44554 62.2601 9.46885C62.2543 9.48051 62.2484 9.49217 62.2426 9.50383L62.2164 9.55628C62.2047 9.5796 62.1931 9.60291 62.1814 9.62623C62.1756 9.63206 62.1727 9.6408 62.1727 9.65246C62.1552 9.6816 62.1377 9.71075 62.1202 9.73989C62.1027 9.76903 62.0852 9.79818 62.0678 9.82732C62.0619 9.83898 62.0561 9.85064 62.0503 9.8623C62.0386 9.87978 62.027 9.89727 62.0153 9.91475C61.9978 9.93224 61.9832 9.95264 61.9716 9.97596C61.9658 9.98178 61.9599 9.99053 61.9541 10.0022C61.9424 10.0255 61.9279 10.0459 61.9104 10.0634C61.9046 10.0692 61.9016 10.075 61.9016 10.0809C61.8842 10.1042 61.8667 10.1275 61.8492 10.1508C61.8433 10.1566 61.8404 10.1596 61.8404 10.1596L61.6568 10.3956C60.8058 11.3224 59.7625 11.7975 58.5268 11.8208H58.3519C58.3228 11.8149 58.2936 11.812 58.2645 11.812C58.2353 11.812 58.2091 11.8091 58.1858 11.8033H58.1071C58.0954 11.8033 58.0867 11.8004 58.0809 11.7945H58.0197C58.008 11.7887 57.9964 11.7858 57.9847 11.7858H57.941C57.9293 11.78 57.9148 11.777 57.8973 11.777C57.8856 11.777 57.874 11.7741 57.8623 11.7683C57.8448 11.7683 57.8273 11.7654 57.8098 11.7596H57.7749C57.7574 11.7537 57.737 11.7479 57.7137 11.7421H57.7049C57.6816 11.7362 57.6554 11.7304 57.6262 11.7246C57.5971 11.7188 57.5679 11.7129 57.5388 11.7071C57.1541 11.6197 56.784 11.471 56.4284 11.2612C56.4168 11.2554 56.4051 11.2495 56.3934 11.2437L56.4109 11.2525C55.5308 10.7162 54.9275 9.99053 54.6011 9.07541L56.1399 8.66448C56.3556 9.17159 56.7169 9.5796 57.224 9.88853C57.4164 9.99344 57.6117 10.075 57.8098 10.1333C57.839 10.145 57.8681 10.1537 57.8973 10.1596H57.906C57.9352 10.1654 57.9614 10.1712 57.9847 10.177C57.9905 10.177 57.9993 10.18 58.0109 10.1858C58.0284 10.1858 58.0488 10.1887 58.0721 10.1945C58.0838 10.1945 58.0954 10.1974 58.1071 10.2033C58.1304 10.2033 58.1508 10.2062 58.1683 10.212H58.212C58.2295 10.2179 58.247 10.2208 58.2645 10.2208C58.282 10.2208 58.2994 10.2237 58.3169 10.2295H58.4481C58.4714 10.2353 58.4947 10.2383 58.518 10.2383H58.5443C58.5676 10.2383 58.5938 10.2353 58.6229 10.2295H58.7191C58.725 10.2295 58.7337 10.2266 58.7454 10.2208H58.824C59.3545 10.1508 59.8237 9.93515 60.2317 9.57377L55.9913 7.12568L54.5749 6.30383C54.6623 6.05319 54.773 5.81129 54.9071 5.57814C55.3035 4.90783 55.8222 4.3949 56.4634 4.03934C57.1045 3.68379 57.7923 3.5031 58.5268 3.49727Z" fill="black"/>
</svg>
