<svg width="405" height="408" viewBox="0 0 405 408" fill="none" xmlns="http://www.w3.org/2000/svg">
<g filter="url(#filter0_d_209_18)">
<circle cx="362" cy="225.934" r="7" fill="#B677FA"/>
<rect x="334.032" y="216" width="38.3871" height="20" rx="10" stroke="#B677FA" stroke-width="2"/>
<circle cx="362" cy="257.934" r="7" fill="#B677FA"/>
<rect x="334.032" y="248" width="38.3871" height="20" rx="10" stroke="#B677FA" stroke-width="2"/>
<path d="M36.3206 48.4583L33.1606 34.4983H36.1606L37.4806 41.1983L38.2206 45.0783H38.2806L39.1606 41.1983L40.7006 34.4983H44.0206L45.5806 41.1983L46.4406 45.0783H46.5006L47.2406 41.1983L48.5806 34.4983H51.4606L48.2206 48.4583H44.7606L43.0006 40.8983L42.3206 37.8383H42.2606L41.5606 40.8983L39.8006 48.4583H36.3206ZM57.2859 48.6983C56.4859 48.6983 55.7726 48.5716 55.1459 48.3183C54.5193 48.0516 53.9859 47.685 53.5459 47.2183C53.1193 46.7383 52.7926 46.1583 52.5659 45.4783C52.3526 44.7983 52.2459 44.0383 52.2459 43.1983C52.2459 42.3716 52.3526 41.625 52.5659 40.9583C52.7793 40.2783 53.0926 39.6983 53.5059 39.2183C53.9326 38.7383 54.4526 38.3716 55.0659 38.1183C55.6793 37.8516 56.3793 37.7183 57.1659 37.7183C58.0326 37.7183 58.7726 37.865 59.3859 38.1583C60.0126 38.4516 60.5193 38.845 60.9059 39.3383C61.3059 39.8316 61.5926 40.405 61.7659 41.0583C61.9526 41.6983 62.0459 42.3716 62.0459 43.0783V43.9583H55.3059V44.1183C55.3059 44.8116 55.4926 45.365 55.8659 45.7783C56.2393 46.1783 56.8259 46.3783 57.6259 46.3783C58.2393 46.3783 58.7393 46.2583 59.1259 46.0183C59.5126 45.765 59.8726 45.465 60.2059 45.1183L61.6859 46.9583C61.2193 47.505 60.6059 47.9316 59.8459 48.2383C59.0993 48.545 58.2459 48.6983 57.2859 48.6983ZM57.2259 39.8983C56.6259 39.8983 56.1526 40.0983 55.8059 40.4983C55.4726 40.885 55.3059 41.405 55.3059 42.0583V42.2183H58.9859V42.0383C58.9859 41.3983 58.8393 40.885 58.5459 40.4983C58.2659 40.0983 57.8259 39.8983 57.2259 39.8983ZM75.063 46.6983H74.963C74.8696 46.965 74.743 47.2183 74.583 47.4583C74.4363 47.6983 74.243 47.9116 74.003 48.0983C73.763 48.285 73.4763 48.4316 73.143 48.5383C72.823 48.645 72.4496 48.6983 72.023 48.6983C70.943 48.6983 70.123 48.345 69.563 47.6383C69.0163 46.9183 68.743 45.8916 68.743 44.5583V37.9583H71.703V44.2983C71.703 44.9383 71.8163 45.4316 72.043 45.7783C72.2696 46.125 72.6563 46.2983 73.203 46.2983C73.4296 46.2983 73.6563 46.265 73.883 46.1983C74.1096 46.1316 74.3096 46.0383 74.483 45.9183C74.6563 45.785 74.7963 45.625 74.903 45.4383C75.0096 45.2516 75.063 45.0316 75.063 44.7783V37.9583H78.023V48.4583H75.063V46.6983ZM84.337 48.6983C83.3237 48.6983 82.4704 48.5383 81.777 48.2183C81.0837 47.885 80.4637 47.4183 79.917 46.8183L81.657 45.0583C82.0304 45.4716 82.4437 45.7983 82.897 46.0383C83.3504 46.2783 83.8637 46.3983 84.437 46.3983C85.0237 46.3983 85.4304 46.3116 85.657 46.1383C85.8837 45.9516 85.997 45.705 85.997 45.3983C85.997 44.905 85.6437 44.6116 84.937 44.5183L83.797 44.3783C81.437 44.085 80.257 43.005 80.257 41.1383C80.257 40.6316 80.3504 40.1716 80.537 39.7583C80.737 39.3316 81.0104 38.9716 81.357 38.6783C81.717 38.3716 82.1437 38.1383 82.637 37.9783C83.1437 37.805 83.7104 37.7183 84.337 37.7183C84.8837 37.7183 85.3637 37.7583 85.777 37.8383C86.2037 37.905 86.577 38.0116 86.897 38.1583C87.2304 38.2916 87.5304 38.465 87.797 38.6783C88.077 38.8783 88.3504 39.105 88.617 39.3583L86.917 41.0983C86.5837 40.765 86.2037 40.505 85.777 40.3183C85.3637 40.1183 84.937 40.0183 84.497 40.0183C83.9904 40.0183 83.6304 40.0983 83.417 40.2583C83.2037 40.4183 83.097 40.6316 83.097 40.8983C83.097 41.1783 83.1704 41.3983 83.317 41.5583C83.477 41.705 83.7704 41.8116 84.197 41.8783L85.377 42.0383C87.6837 42.345 88.837 43.3983 88.837 45.1983C88.837 45.705 88.7304 46.1716 88.517 46.5983C88.3037 47.025 87.997 47.3983 87.597 47.7183C87.2104 48.025 86.737 48.265 86.177 48.4383C85.6304 48.6116 85.017 48.6983 84.337 48.6983ZM95.2352 48.6983C94.4352 48.6983 93.7218 48.5716 93.0952 48.3183C92.4685 48.0516 91.9352 47.685 91.4952 47.2183C91.0685 46.7383 90.7418 46.1583 90.5152 45.4783C90.3018 44.7983 90.1952 44.0383 90.1952 43.1983C90.1952 42.3716 90.3018 41.625 90.5152 40.9583C90.7285 40.2783 91.0418 39.6983 91.4552 39.2183C91.8818 38.7383 92.4018 38.3716 93.0152 38.1183C93.6285 37.8516 94.3285 37.7183 95.1152 37.7183C95.9818 37.7183 96.7218 37.865 97.3352 38.1583C97.9618 38.4516 98.4685 38.845 98.8552 39.3383C99.2552 39.8316 99.5418 40.405 99.7152 41.0583C99.9018 41.6983 99.9952 42.3716 99.9952 43.0783V43.9583H93.2552V44.1183C93.2552 44.8116 93.4418 45.365 93.8152 45.7783C94.1885 46.1783 94.7752 46.3783 95.5752 46.3783C96.1885 46.3783 96.6885 46.2583 97.0752 46.0183C97.4618 45.765 97.8218 45.465 98.1552 45.1183L99.6352 46.9583C99.1685 47.505 98.5552 47.9316 97.7952 48.2383C97.0485 48.545 96.1952 48.6983 95.2352 48.6983ZM95.1752 39.8983C94.5752 39.8983 94.1018 40.0983 93.7552 40.4983C93.4218 40.885 93.2552 41.405 93.2552 42.0583V42.2183H96.9352V42.0383C96.9352 41.3983 96.7885 40.885 96.4952 40.4983C96.2152 40.0983 95.7752 39.8983 95.1752 39.8983ZM111.052 48.6983C110.266 48.6983 109.566 48.5716 108.952 48.3183C108.339 48.0516 107.826 47.685 107.412 47.2183C106.999 46.7383 106.686 46.1583 106.472 45.4783C106.259 44.7983 106.152 44.0383 106.152 43.1983C106.152 42.3583 106.259 41.605 106.472 40.9383C106.686 40.2583 106.999 39.6783 107.412 39.1983C107.826 38.7183 108.339 38.3516 108.952 38.0983C109.566 37.845 110.266 37.7183 111.052 37.7183C112.119 37.7183 113.006 37.9583 113.712 38.4383C114.432 38.9183 114.946 39.5916 115.252 40.4583L112.852 41.4983C112.759 41.0983 112.566 40.7583 112.272 40.4783C111.979 40.1983 111.572 40.0583 111.052 40.0583C110.452 40.0583 109.999 40.2583 109.692 40.6583C109.386 41.045 109.232 41.5716 109.232 42.2383V44.1983C109.232 44.865 109.386 45.3916 109.692 45.7783C109.999 46.165 110.452 46.3583 111.052 46.3583C111.586 46.3583 112.006 46.2183 112.312 45.9383C112.632 45.645 112.866 45.265 113.012 44.7983L115.312 45.7983C114.966 46.7983 114.426 47.5316 113.692 47.9983C112.972 48.465 112.092 48.6983 111.052 48.6983ZM121.307 48.6983C120.533 48.6983 119.84 48.5716 119.227 48.3183C118.627 48.065 118.113 47.6983 117.687 47.2183C117.273 46.7383 116.953 46.1583 116.727 45.4783C116.5 44.7983 116.387 44.0383 116.387 43.1983C116.387 42.3583 116.5 41.5983 116.727 40.9183C116.953 40.2383 117.273 39.665 117.687 39.1983C118.113 38.7183 118.627 38.3516 119.227 38.0983C119.84 37.845 120.533 37.7183 121.307 37.7183C122.08 37.7183 122.767 37.845 123.367 38.0983C123.98 38.3516 124.493 38.7183 124.907 39.1983C125.333 39.665 125.66 40.2383 125.887 40.9183C126.113 41.5983 126.227 42.3583 126.227 43.1983C126.227 44.0383 126.113 44.7983 125.887 45.4783C125.66 46.1583 125.333 46.7383 124.907 47.2183C124.493 47.6983 123.98 48.065 123.367 48.3183C122.767 48.5716 122.08 48.6983 121.307 48.6983ZM121.307 46.3583C121.893 46.3583 122.347 46.1783 122.667 45.8183C122.987 45.4583 123.147 44.945 123.147 44.2783V42.1383C123.147 41.4716 122.987 40.9583 122.667 40.5983C122.347 40.2383 121.893 40.0583 121.307 40.0583C120.72 40.0583 120.267 40.2383 119.947 40.5983C119.627 40.9583 119.467 41.4716 119.467 42.1383V44.2783C119.467 44.945 119.627 45.4583 119.947 45.8183C120.267 46.1783 120.72 46.3583 121.307 46.3583ZM132.596 48.6983C131.822 48.6983 131.129 48.5716 130.516 48.3183C129.916 48.065 129.402 47.6983 128.976 47.2183C128.562 46.7383 128.242 46.1583 128.016 45.4783C127.789 44.7983 127.676 44.0383 127.676 43.1983C127.676 42.3583 127.789 41.5983 128.016 40.9183C128.242 40.2383 128.562 39.665 128.976 39.1983C129.402 38.7183 129.916 38.3516 130.516 38.0983C131.129 37.845 131.822 37.7183 132.596 37.7183C133.369 37.7183 134.056 37.845 134.656 38.0983C135.269 38.3516 135.782 38.7183 136.196 39.1983C136.622 39.665 136.949 40.2383 137.176 40.9183C137.402 41.5983 137.516 42.3583 137.516 43.1983C137.516 44.0383 137.402 44.7983 137.176 45.4783C136.949 46.1583 136.622 46.7383 136.196 47.2183C135.782 47.6983 135.269 48.065 134.656 48.3183C134.056 48.5716 133.369 48.6983 132.596 48.6983ZM132.596 46.3583C133.182 46.3583 133.636 46.1783 133.956 45.8183C134.276 45.4583 134.436 44.945 134.436 44.2783V42.1383C134.436 41.4716 134.276 40.9583 133.956 40.5983C133.636 40.2383 133.182 40.0583 132.596 40.0583C132.009 40.0583 131.556 40.2383 131.236 40.5983C130.916 40.9583 130.756 41.4716 130.756 42.1383V44.2783C130.756 44.945 130.916 45.4583 131.236 45.8183C131.556 46.1783 132.009 46.3583 132.596 46.3583ZM139.625 33.6583H142.585V42.3983H142.705L144.005 40.4583L146.105 37.9583H149.385L145.885 41.9783L149.785 48.4583H146.265L143.905 44.0183L142.585 45.4983V48.4583H139.625V33.6583ZM152.648 36.8383C152.048 36.8383 151.608 36.705 151.328 36.4383C151.061 36.1583 150.928 35.805 150.928 35.3783V34.9383C150.928 34.5116 151.061 34.165 151.328 33.8983C151.608 33.6183 152.048 33.4783 152.648 33.4783C153.248 33.4783 153.681 33.6183 153.948 33.8983C154.228 34.165 154.368 34.5116 154.368 34.9383V35.3783C154.368 35.805 154.228 36.1583 153.948 36.4383C153.681 36.705 153.248 36.8383 152.648 36.8383ZM151.168 37.9583H154.128V48.4583H151.168V37.9583ZM161.27 48.6983C160.47 48.6983 159.757 48.5716 159.13 48.3183C158.504 48.0516 157.97 47.685 157.53 47.2183C157.104 46.7383 156.777 46.1583 156.55 45.4783C156.337 44.7983 156.23 44.0383 156.23 43.1983C156.23 42.3716 156.337 41.625 156.55 40.9583C156.764 40.2783 157.077 39.6983 157.49 39.2183C157.917 38.7383 158.437 38.3716 159.05 38.1183C159.664 37.8516 160.364 37.7183 161.15 37.7183C162.017 37.7183 162.757 37.865 163.37 38.1583C163.997 38.4516 164.504 38.845 164.89 39.3383C165.29 39.8316 165.577 40.405 165.75 41.0583C165.937 41.6983 166.03 42.3716 166.03 43.0783V43.9583H159.29V44.1183C159.29 44.8116 159.477 45.365 159.85 45.7783C160.224 46.1783 160.81 46.3783 161.61 46.3783C162.224 46.3783 162.724 46.2583 163.11 46.0183C163.497 45.765 163.857 45.465 164.19 45.1183L165.67 46.9583C165.204 47.505 164.59 47.9316 163.83 48.2383C163.084 48.545 162.23 48.6983 161.27 48.6983ZM161.21 39.8983C160.61 39.8983 160.137 40.0983 159.79 40.4983C159.457 40.885 159.29 41.405 159.29 42.0583V42.2183H162.97V42.0383C162.97 41.3983 162.824 40.885 162.53 40.4983C162.25 40.0983 161.81 39.8983 161.21 39.8983ZM171.681 48.6983C170.667 48.6983 169.814 48.5383 169.121 48.2183C168.427 47.885 167.807 47.4183 167.261 46.8183L169.001 45.0583C169.374 45.4716 169.787 45.7983 170.241 46.0383C170.694 46.2783 171.207 46.3983 171.781 46.3983C172.367 46.3983 172.774 46.3116 173.001 46.1383C173.227 45.9516 173.341 45.705 173.341 45.3983C173.341 44.905 172.987 44.6116 172.281 44.5183L171.141 44.3783C168.781 44.085 167.601 43.005 167.601 41.1383C167.601 40.6316 167.694 40.1716 167.881 39.7583C168.081 39.3316 168.354 38.9716 168.701 38.6783C169.061 38.3716 169.487 38.1383 169.981 37.9783C170.487 37.805 171.054 37.7183 171.681 37.7183C172.227 37.7183 172.707 37.7583 173.121 37.8383C173.547 37.905 173.921 38.0116 174.241 38.1583C174.574 38.2916 174.874 38.465 175.141 38.6783C175.421 38.8783 175.694 39.105 175.961 39.3583L174.261 41.0983C173.927 40.765 173.547 40.505 173.121 40.3183C172.707 40.1183 172.281 40.0183 171.841 40.0183C171.334 40.0183 170.974 40.0983 170.761 40.2583C170.547 40.4183 170.441 40.6316 170.441 40.8983C170.441 41.1783 170.514 41.3983 170.661 41.5583C170.821 41.705 171.114 41.8116 171.541 41.8783L172.721 42.0383C175.027 42.345 176.181 43.3983 176.181 45.1983C176.181 45.705 176.074 46.1716 175.861 46.5983C175.647 47.025 175.341 47.3983 174.941 47.7183C174.554 48.025 174.081 48.265 173.521 48.4383C172.974 48.6116 172.361 48.6983 171.681 48.6983ZM187.185 48.6983C186.412 48.6983 185.719 48.5716 185.105 48.3183C184.505 48.065 183.992 47.6983 183.565 47.2183C183.152 46.7383 182.832 46.1583 182.605 45.4783C182.379 44.7983 182.265 44.0383 182.265 43.1983C182.265 42.3583 182.379 41.5983 182.605 40.9183C182.832 40.2383 183.152 39.665 183.565 39.1983C183.992 38.7183 184.505 38.3516 185.105 38.0983C185.719 37.845 186.412 37.7183 187.185 37.7183C187.959 37.7183 188.645 37.845 189.245 38.0983C189.859 38.3516 190.372 38.7183 190.785 39.1983C191.212 39.665 191.539 40.2383 191.765 40.9183C191.992 41.5983 192.105 42.3583 192.105 43.1983C192.105 44.0383 191.992 44.7983 191.765 45.4783C191.539 46.1583 191.212 46.7383 190.785 47.2183C190.372 47.6983 189.859 48.065 189.245 48.3183C188.645 48.5716 187.959 48.6983 187.185 48.6983ZM187.185 46.3583C187.772 46.3583 188.225 46.1783 188.545 45.8183C188.865 45.4583 189.025 44.945 189.025 44.2783V42.1383C189.025 41.4716 188.865 40.9583 188.545 40.5983C188.225 40.2383 187.772 40.0583 187.185 40.0583C186.599 40.0583 186.145 40.2383 185.825 40.5983C185.505 40.9583 185.345 41.4716 185.345 42.1383V44.2783C185.345 44.945 185.505 45.4583 185.825 45.8183C186.145 46.1783 186.599 46.3583 187.185 46.3583ZM194.215 48.4583V37.9583H197.175V39.7383H197.295C197.481 39.1916 197.808 38.7183 198.275 38.3183C198.741 37.9183 199.388 37.7183 200.215 37.7183C201.295 37.7183 202.108 38.0783 202.655 38.7983C203.215 39.5183 203.495 40.545 203.495 41.8783V48.4583H200.535V42.1183C200.535 41.4383 200.428 40.9383 200.215 40.6183C200.001 40.285 199.621 40.1183 199.075 40.1183C198.835 40.1183 198.601 40.1516 198.375 40.2183C198.148 40.2716 197.941 40.365 197.755 40.4983C197.581 40.6316 197.441 40.7983 197.335 40.9983C197.228 41.185 197.175 41.405 197.175 41.6583V48.4583H194.215ZM214.535 48.4583C213.508 48.4583 212.728 48.1983 212.195 47.6783C211.675 47.1583 211.415 46.3983 211.415 45.3983V40.2583H209.935V37.9583H210.675C211.075 37.9583 211.348 37.865 211.495 37.6783C211.642 37.4783 211.715 37.1983 211.715 36.8383V35.1183H214.375V37.9583H216.455V40.2583H214.375V46.1583H216.295V48.4583H214.535ZM218.511 33.6583H221.471V39.7383H221.591C221.778 39.1916 222.105 38.7183 222.571 38.3183C223.038 37.9183 223.685 37.7183 224.511 37.7183C225.591 37.7183 226.405 38.0783 226.951 38.7983C227.511 39.5183 227.791 40.545 227.791 41.8783V48.4583H224.831V42.1183C224.831 41.4383 224.725 40.9383 224.511 40.6183C224.298 40.285 223.918 40.1183 223.371 40.1183C223.131 40.1183 222.898 40.1516 222.671 40.2183C222.445 40.2716 222.238 40.365 222.051 40.4983C221.878 40.6316 221.738 40.7983 221.631 40.9983C221.525 41.185 221.471 41.405 221.471 41.6583V48.4583H218.511V33.6583ZM231.905 36.8383C231.305 36.8383 230.865 36.705 230.585 36.4383C230.319 36.1583 230.185 35.805 230.185 35.3783V34.9383C230.185 34.5116 230.319 34.165 230.585 33.8983C230.865 33.6183 231.305 33.4783 231.905 33.4783C232.505 33.4783 232.939 33.6183 233.205 33.8983C233.485 34.165 233.625 34.5116 233.625 34.9383V35.3783C233.625 35.805 233.485 36.1583 233.205 36.4383C232.939 36.705 232.505 36.8383 231.905 36.8383ZM230.425 37.9583H233.385V48.4583H230.425V37.9583ZM239.708 48.6983C238.695 48.6983 237.841 48.5383 237.148 48.2183C236.455 47.885 235.835 47.4183 235.288 46.8183L237.028 45.0583C237.401 45.4716 237.815 45.7983 238.268 46.0383C238.721 46.2783 239.235 46.3983 239.808 46.3983C240.395 46.3983 240.801 46.3116 241.028 46.1383C241.255 45.9516 241.368 45.705 241.368 45.3983C241.368 44.905 241.015 44.6116 240.308 44.5183L239.168 44.3783C236.808 44.085 235.628 43.005 235.628 41.1383C235.628 40.6316 235.721 40.1716 235.908 39.7583C236.108 39.3316 236.381 38.9716 236.728 38.6783C237.088 38.3716 237.515 38.1383 238.008 37.9783C238.515 37.805 239.081 37.7183 239.708 37.7183C240.255 37.7183 240.735 37.7583 241.148 37.8383C241.575 37.905 241.948 38.0116 242.268 38.1583C242.601 38.2916 242.901 38.465 243.168 38.6783C243.448 38.8783 243.721 39.105 243.988 39.3583L242.288 41.0983C241.955 40.765 241.575 40.505 241.148 40.3183C240.735 40.1183 240.308 40.0183 239.868 40.0183C239.361 40.0183 239.001 40.0983 238.788 40.2583C238.575 40.4183 238.468 40.6316 238.468 40.8983C238.468 41.1783 238.541 41.3983 238.688 41.5583C238.848 41.705 239.141 41.8116 239.568 41.8783L240.748 42.0383C243.055 42.345 244.208 43.3983 244.208 45.1983C244.208 45.705 244.101 46.1716 243.888 46.5983C243.675 47.025 243.368 47.3983 242.968 47.7183C242.581 48.025 242.108 48.265 241.548 48.4383C241.001 48.6116 240.388 48.6983 239.708 48.6983ZM254.513 48.6983C253.499 48.6983 252.646 48.5383 251.953 48.2183C251.259 47.885 250.639 47.4183 250.093 46.8183L251.833 45.0583C252.206 45.4716 252.619 45.7983 253.073 46.0383C253.526 46.2783 254.039 46.3983 254.613 46.3983C255.199 46.3983 255.606 46.3116 255.833 46.1383C256.059 45.9516 256.173 45.705 256.173 45.3983C256.173 44.905 255.819 44.6116 255.113 44.5183L253.973 44.3783C251.613 44.085 250.433 43.005 250.433 41.1383C250.433 40.6316 250.526 40.1716 250.713 39.7583C250.913 39.3316 251.186 38.9716 251.533 38.6783C251.893 38.3716 252.319 38.1383 252.813 37.9783C253.319 37.805 253.886 37.7183 254.513 37.7183C255.059 37.7183 255.539 37.7583 255.953 37.8383C256.379 37.905 256.753 38.0116 257.073 38.1583C257.406 38.2916 257.706 38.465 257.973 38.6783C258.253 38.8783 258.526 39.105 258.793 39.3583L257.093 41.0983C256.759 40.765 256.379 40.505 255.953 40.3183C255.539 40.1183 255.113 40.0183 254.673 40.0183C254.166 40.0183 253.806 40.0983 253.593 40.2583C253.379 40.4183 253.273 40.6316 253.273 40.8983C253.273 41.1783 253.346 41.3983 253.493 41.5583C253.653 41.705 253.946 41.8116 254.373 41.8783L255.553 42.0383C257.859 42.345 259.013 43.3983 259.013 45.1983C259.013 45.705 258.906 46.1716 258.693 46.5983C258.479 47.025 258.173 47.3983 257.773 47.7183C257.386 48.025 256.913 48.265 256.353 48.4383C255.806 48.6116 255.193 48.6983 254.513 48.6983ZM262.511 36.8383C261.911 36.8383 261.471 36.705 261.191 36.4383C260.924 36.1583 260.791 35.805 260.791 35.3783V34.9383C260.791 34.5116 260.924 34.165 261.191 33.8983C261.471 33.6183 261.911 33.4783 262.511 33.4783C263.111 33.4783 263.544 33.6183 263.811 33.8983C264.091 34.165 264.231 34.5116 264.231 34.9383V35.3783C264.231 35.805 264.091 36.1583 263.811 36.4383C263.544 36.705 263.111 36.8383 262.511 36.8383ZM261.031 37.9583H263.991V48.4583H261.031V37.9583ZM270.434 48.4583C269.407 48.4583 268.627 48.1983 268.094 47.6783C267.574 47.1583 267.314 46.3983 267.314 45.3983V40.2583H265.834V37.9583H266.574C266.974 37.9583 267.247 37.865 267.394 37.6783C267.54 37.4783 267.614 37.1983 267.614 36.8383V35.1183H270.274V37.9583H272.354V40.2583H270.274V46.1583H272.194V48.4583H270.434ZM278.712 48.6983C277.912 48.6983 277.198 48.5716 276.572 48.3183C275.945 48.0516 275.412 47.685 274.972 47.2183C274.545 46.7383 274.218 46.1583 273.992 45.4783C273.778 44.7983 273.672 44.0383 273.672 43.1983C273.672 42.3716 273.778 41.625 273.992 40.9583C274.205 40.2783 274.518 39.6983 274.932 39.2183C275.358 38.7383 275.878 38.3716 276.492 38.1183C277.105 37.8516 277.805 37.7183 278.592 37.7183C279.458 37.7183 280.198 37.865 280.812 38.1583C281.438 38.4516 281.945 38.845 282.332 39.3383C282.732 39.8316 283.018 40.405 283.192 41.0583C283.378 41.6983 283.472 42.3716 283.472 43.0783V43.9583H276.732V44.1183C276.732 44.8116 276.918 45.365 277.292 45.7783C277.665 46.1783 278.252 46.3783 279.052 46.3783C279.665 46.3783 280.165 46.2583 280.552 46.0183C280.938 45.765 281.298 45.465 281.632 45.1183L283.112 46.9583C282.645 47.505 282.032 47.9316 281.272 48.2383C280.525 48.545 279.672 48.6983 278.712 48.6983ZM278.652 39.8983C278.052 39.8983 277.578 40.0983 277.232 40.4983C276.898 40.885 276.732 41.405 276.732 42.0583V42.2183H280.412V42.0383C280.412 41.3983 280.265 40.885 279.972 40.4983C279.692 40.0983 279.252 39.8983 278.652 39.8983Z" fill="#B677FA"/>
<rect x="32.5806" y="73.7632" width="339.839" height="14" fill="#B677FA"/>
<rect x="32.5806" y="92.9627" width="326.29" height="14" fill="#B677FA"/>
<rect x="32.5806" y="112.162" width="331.935" height="14" fill="#B677FA"/>
<rect x="32.5806" y="131.362" width="216.774" height="14" fill="#B677FA"/>
<rect x="32.5806" y="219.454" width="216.774" height="14" fill="#B677FA"/>
<rect x="32.5806" y="251.077" width="216.774" height="14" fill="#B677FA"/>
<rect x="32.5806" y="187.831" width="103.871" height="14" fill="#B677FA"/>
<rect x="32.5806" y="316" width="159.194" height="54" rx="6" fill="#B677FA"/>
<rect x="214.726" y="317.5" width="156.194" height="51" rx="4.5" stroke="#B677FA" stroke-width="3"/>
<rect x="11" y="7" width="383" height="386" rx="11" stroke="#B677FA" stroke-width="2" shape-rendering="crispEdges"/>
</g>
<defs>
<filter id="filter0_d_209_18" x="0" y="0" width="405" height="408" filterUnits="userSpaceOnUse" color-interpolation-filters="sRGB">
<feFlood flood-opacity="0" result="BackgroundImageFix"/>
<feColorMatrix in="SourceAlpha" type="matrix" values="0 0 0 0 0 0 0 0 0 0 0 0 0 0 0 0 0 0 127 0" result="hardAlpha"/>
<feOffset dy="4"/>
<feGaussianBlur stdDeviation="5"/>
<feComposite in2="hardAlpha" operator="out"/>
<feColorMatrix type="matrix" values="0 0 0 0 0 0 0 0 0 0 0 0 0 0 0 0 0 0 0.15 0"/>
<feBlend mode="normal" in2="BackgroundImageFix" result="effect1_dropShadow_209_18"/>
<feBlend mode="normal" in="SourceGraphic" in2="effect1_dropShadow_209_18" result="shape"/>
</filter>
</defs>
</svg>
